<svg xmlns="http://www.w3.org/2000/svg" width="24" height="24" fill="#fff" class="social-media__icon" viewBox="0 0 48 48"><path d="M19.2 22.848c2.496-1.344 4.032-3.264 4.032-6.144 0-5.952-4.416-7.296-9.408-7.296H0v29.184h14.208c5.376 0 10.176-2.496 10.176-8.448 0-3.648-1.728-6.336-5.184-7.296zM6.336 14.4h6.144c2.304 0 4.416.576 4.416 3.456 0 2.304-1.728 3.456-4.032 3.456H6.336V14.4zm6.912 19.2H6.336v-8.064h7.104c2.88 0 4.608 1.344 4.608 4.224 0 3.072-2.112 3.84-4.8 3.84zm29.568-19.776v-2.88H31.104v2.88h11.712zm4.8 14.592c0-6.336-3.84-11.52-10.368-11.52-6.528 0-10.944 4.8-10.944 11.136 0 6.72 4.224 11.136 10.944 11.136 4.992 0 8.256-2.304 9.984-7.104h-5.184c-.576 1.92-2.88 2.88-4.608 2.88-3.456 0-5.184-2.112-5.184-5.376h15.168c0-.384.192-.768.192-1.152zm-15.36-2.688c.192-2.688 2.112-4.416 4.8-4.416 2.88 0 4.416 1.728 4.608 4.416h-9.408z"/></svg>