<svg width="110" height="32" viewBox="0 0 110 32" fill="none" xmlns="http://www.w3.org/2000/svg">
<g clip-path="url(#clip0_2630_12934)">
<path d="M30.9166 13.6646L25.6107 8.26389C25.5242 8.17462 25.4128 8.11357 25.291 8.08879C25.1693 8.06401 25.0429 8.07664 24.9284 8.12502C24.8133 8.17375 24.7153 8.25575 24.647 8.3605C24.5781 8.46561 24.5414 8.58859 24.5414 8.71431V16.7348C24.5414 18.2231 24.1036 19.4089 23.239 20.2609C21.9554 21.5228 20.1701 21.5892 19.8108 21.5892H17.1784C17.0123 21.5892 16.8529 21.6568 16.7352 21.7763C16.6177 21.8965 16.552 22.058 16.5522 22.2262V31.3576C16.5522 31.4736 16.5824 31.5871 16.6416 31.6867C16.7002 31.7863 16.7847 31.8678 16.8855 31.9222C16.9861 31.9764 17.0998 32.0018 17.214 31.9954C17.3281 31.989 17.4382 31.9511 17.5322 31.8859C17.6819 31.7779 17.8232 31.6565 17.9536 31.5249L30.9215 18.3366C31.5295 17.7119 31.8692 16.8742 31.8682 16.0025C31.8693 15.1305 31.5296 14.2926 30.9215 13.6677" fill="#B5BFDC"/>
<path d="M22.4441 19.4125C23.0732 18.7875 23.392 17.8867 23.392 16.7299V6.27253C23.392 6.10347 23.3256 5.94105 23.2079 5.82211L17.949 0.470262C17.8191 0.33842 17.6781 0.218024 17.5275 0.110413C17.4571 0.0613716 17.3772 0.0275292 17.2929 0.0110372C17.2087 -0.00545486 17.1219 -0.00423574 17.0381 0.014617C16.9544 0.0334698 16.8755 0.0695437 16.8064 0.120545C16.7373 0.171547 16.6796 0.236361 16.637 0.310866C16.5785 0.411031 16.548 0.52512 16.5488 0.64113V19.7771C16.5488 19.9462 16.6152 20.108 16.7324 20.2275C16.8495 20.3471 17.0089 20.4141 17.1749 20.4141H19.7657C19.7959 20.4141 21.3989 20.4443 22.4507 19.407M10.2309 11.6153C11.1958 10.6632 12.5706 10.6958 12.6309 10.6988H14.6916C14.8577 10.6988 15.0165 10.6324 15.1342 10.5128C15.2513 10.3933 15.3171 10.2315 15.3171 10.0624V0.64113C15.3177 0.525205 15.2869 0.411092 15.2284 0.311469C15.1699 0.212094 15.0854 0.13065 14.9839 0.0759976C14.8832 0.0219682 14.7695 -0.00308165 14.6555 0.00363358C14.5414 0.0103488 14.4314 0.0485659 14.3378 0.114035C14.1867 0.221608 14.0451 0.342003 13.9146 0.473884L4.94008 9.59992C4.85253 9.68977 4.79323 9.80331 4.76952 9.9265C4.7458 10.0497 4.75871 10.1771 4.80664 10.2931C4.85374 10.4096 4.93344 10.5086 5.03608 10.5786C5.13872 10.6487 5.25947 10.6861 5.38325 10.6873H7.22898C7.37243 10.6831 7.51259 10.7307 7.62385 10.8214C7.73615 10.9119 7.81223 11.0405 7.84 11.1836C7.85156 11.2662 7.8456 11.3502 7.82251 11.4304C7.79941 11.5105 7.7597 11.5848 7.70596 11.6485C7.65252 11.7115 7.58612 11.7621 7.5113 11.797C7.43649 11.8319 7.35501 11.8503 7.27246 11.8508H2.98687C2.82023 11.8508 2.66083 11.919 2.5437 12.0386L0.947927 13.6615C0.339162 14.2859 -0.00107769 15.1237 2.5645e-06 15.9957C2.5645e-06 16.8712 0.340531 17.7104 0.947927 18.3305L8.25963 25.7654C8.34643 25.8541 8.45783 25.9147 8.57945 25.9395C8.70107 25.9642 8.82732 25.9519 8.94189 25.9042C9.05661 25.8559 9.15381 25.7744 9.22204 25.6688C9.29087 25.5643 9.3271 25.4411 9.32649 25.3149V14.0364C9.32649 13.0131 9.63019 12.2022 10.2309 11.6117" fill="#B5BFDC"/>
<path d="M12.6142 11.863C12.5859 11.863 11.6343 11.8473 11.0215 12.4583C10.6574 12.8206 10.4727 13.3525 10.4727 14.0402V27.7568C10.4723 27.9247 10.538 28.086 10.6556 28.206L13.9148 31.5279C14.0458 31.6608 14.1871 31.7815 14.3374 31.8902C14.4079 31.939 14.4877 31.9727 14.5719 31.9891C14.656 32.0056 14.7427 32.0044 14.8263 31.9857C14.91 31.9669 14.9889 31.9311 15.058 31.8804C15.1272 31.8296 15.185 31.7651 15.228 31.6909C15.2865 31.5907 15.3173 31.4772 15.3173 31.3607V12.4994C15.3173 12.3303 15.2515 12.1685 15.1344 12.0496C15.0768 11.9905 15.0079 11.9436 14.932 11.9114C14.856 11.8793 14.7743 11.8626 14.6918 11.8624H12.6142V11.863ZM36.4011 5.62121C38.4147 5.62121 40.4404 5.62121 42.4606 5.63087C42.6284 5.63087 42.9122 5.69245 42.9285 5.77094C42.9768 6.03842 42.9726 6.31253 42.9152 6.57819C42.9032 6.64098 42.6616 6.68868 42.5246 6.69049C41.791 6.70076 41.0574 6.69049 40.3244 6.69049H39.9078V14.7623C39.9078 15.3323 39.4465 15.6155 38.9285 15.351C38.8444 15.297 38.7843 15.2127 38.7607 15.1155C38.7361 14.9804 38.7276 14.8428 38.7353 14.7056V6.71645H36.4011V5.62061V5.62121ZM56.3655 9.49744C56.7006 9.21608 57.0363 8.96189 57.3418 8.67691C57.6002 8.41849 57.9178 8.23012 58.2656 8.12868C58.6137 8.02718 58.9819 8.01617 59.3354 8.09668C60.4041 8.30498 61.2868 8.78981 61.7348 9.83253C61.922 10.2974 62.0234 10.7925 62.0337 11.2949C62.076 12.5085 62.0506 13.7263 62.0488 14.9417C62.0488 15.3697 62.0017 15.3969 61.4583 15.3951C61.0037 15.3951 60.9801 15.3734 60.9735 14.9483C60.9584 13.6532 60.9735 12.3563 60.9143 11.0624C60.8787 10.5199 60.6326 10.0127 60.2284 9.64898C60.0303 9.4707 59.7987 9.33344 59.5472 9.24515C59.2957 9.15686 59.0292 9.11927 58.7631 9.13457C58.5638 9.15147 58.373 9.22453 58.213 9.34589C57.7727 9.68582 57.3438 10.0402 56.927 10.4085C56.8371 10.5002 56.7846 10.622 56.7797 10.7503C56.7797 12.1601 56.7797 13.5711 56.7996 14.9827C56.7996 15.3027 56.674 15.4229 56.3751 15.3933H56.1723C55.7744 15.3933 55.7225 15.3426 55.7207 14.938C55.7207 13.8374 55.7424 12.7349 55.7056 11.6342C55.6972 11.1678 55.6098 10.7062 55.4471 10.2691C55.1604 9.54211 54.1671 9.01804 53.4118 9.13396C53.2251 9.17968 53.0524 9.27001 52.9083 9.39721C52.549 9.67495 52.217 9.9877 51.8559 10.2606C51.7448 10.3391 51.6554 10.4448 51.5963 10.5685C51.5377 10.6923 51.5118 10.83 51.5208 10.967C51.5293 12.2615 51.5293 13.5572 51.5208 14.8541C51.5208 15.025 51.4604 15.3166 51.385 15.3323C51.1112 15.3733 50.8328 15.3733 50.559 15.3323C50.5155 15.3323 50.46 15.1614 50.46 15.0679C50.46 13.518 50.46 11.9705 50.4865 10.4224C50.5059 10.196 50.6061 9.98468 50.7685 9.82891C51.3391 9.31691 51.9302 8.80491 52.5406 8.3394C53.0628 7.93668 53.6739 8.01155 54.2662 8.13774C55.1718 8.33095 55.6639 8.64974 56.3582 9.50287M106.485 15.5128C105.813 15.4102 105.283 15.3426 104.753 15.2399C104.661 15.2162 104.577 15.1711 104.506 15.1083C104.397 15.0129 104.326 14.8826 104.303 14.74C104.28 14.5973 104.308 14.4513 104.382 14.327C104.437 14.2449 104.638 14.2262 104.765 14.2419C105.278 14.3029 105.788 14.4381 106.302 14.4484C106.728 14.4442 107.15 14.3745 107.555 14.2419C107.743 14.19 107.908 14.0752 108.024 13.9165C108.14 13.7577 108.2 13.5639 108.195 13.3664C108.21 12.9245 107.943 12.6842 107.596 12.5405C107.248 12.3968 106.825 12.2911 106.442 12.1583C106.012 12.0315 105.591 11.8745 105.181 11.6903C103.858 11.0165 104.196 9.09351 105.171 8.50845C105.599 8.22811 106.099 8.07909 106.61 8.07978C107.26 8.11359 107.907 8.18423 108.548 8.2911C108.797 8.32732 108.884 8.67328 108.794 9.07117C108.728 9.34589 108.524 9.20279 108.379 9.19434C107.785 9.1563 107.191 9.06091 106.601 9.07479C106.288 9.10903 105.989 9.21909 105.729 9.3954C105.298 9.64596 105.187 10.5577 105.825 10.8082C106.255 10.9791 106.698 11.1041 107.125 11.2774C107.644 11.4875 108.22 11.636 108.649 11.9717C109.706 12.7965 109.384 14.6241 108.106 15.1276C107.559 15.3408 106.954 15.4054 106.485 15.5128ZM102.997 6.95555V7.87812C102.997 8.06408 102.912 8.14136 102.732 8.15464C102.18 8.19691 102.138 8.15464 102.138 7.60219V6.09819C102.138 5.77034 102.175 5.73593 102.494 5.73472H102.729C102.917 5.72445 102.996 5.82166 102.996 6.004V6.95434M48.386 11.7332C48.386 10.1972 47.4695 9.10679 46.0084 9.10679C44.5466 9.10679 43.6319 10.2026 43.6319 11.7332C43.6319 13.2638 44.5466 14.3457 46.0084 14.3457C47.4695 14.3457 48.386 13.2656 48.386 11.7332ZM42.4207 11.7332C42.4207 9.61698 43.9706 7.97895 46.053 7.97895C48.1361 7.97895 49.596 9.61517 49.596 11.7332C49.596 13.8512 48.0455 15.4718 45.9643 15.4718C43.8837 15.4718 42.4207 13.8512 42.4207 11.7332ZM69.2228 11.7332C69.2228 10.1972 68.3081 9.10679 66.8464 9.10679C65.3847 9.10679 64.4705 10.2026 64.4705 11.7332C64.4705 13.2638 65.3847 14.3457 66.8464 14.3457C68.3081 14.3457 69.2228 13.2656 69.2228 11.7332ZM63.2588 11.7332C63.2588 9.61698 64.8093 7.97895 66.8899 7.97895C68.9711 7.97895 70.434 9.61517 70.434 11.7332C70.434 13.8512 68.8835 15.4718 66.8029 15.4718C64.7223 15.4718 63.2588 13.8512 63.2588 11.7332ZM76.1463 9.27766C75.7316 9.17375 75.3053 9.12323 74.8778 9.12732C74.3473 9.10589 73.8213 9.23125 73.3575 9.48959V15.2689C73.1585 15.3116 72.9554 15.3319 72.7519 15.3293C72.5482 15.3312 72.345 15.3109 72.1457 15.2689V8.95525C72.7217 8.46015 73.8007 7.99464 74.9514 7.99464C75.4584 7.9863 75.9629 8.06765 76.4416 8.23495C76.4684 8.60844 76.364 8.97959 76.1463 9.2843M81.5954 9.27766C81.18 9.17385 80.7531 9.12333 80.325 9.12732C79.7946 9.1063 79.2687 9.23163 78.8047 9.48959V15.2689C78.6055 15.3112 78.402 15.3317 78.1985 15.3293C77.9957 15.3312 77.7932 15.3109 77.5948 15.2689V8.95525C78.1702 8.46015 79.2473 7.99464 80.3987 7.99464C80.9063 7.98652 81.4113 8.06786 81.8906 8.23495C81.9155 8.60825 81.8113 8.97876 81.5954 9.2843M88.3715 11.7332C88.3715 10.1972 87.4568 9.10679 85.9951 9.10679C84.5333 9.10679 83.6174 10.2026 83.6174 11.7332C83.6174 13.2638 84.5333 14.3457 85.9951 14.3457C87.4568 14.3457 88.3715 13.2571 88.3715 11.7332ZM82.4074 11.7332C82.4074 9.61698 83.9579 7.97895 86.0386 7.97895C88.1198 7.97895 89.5815 9.61517 89.5815 11.7332C89.5815 13.8512 88.0322 15.4718 85.9498 15.4718C83.8674 15.4718 82.4074 13.8512 82.4074 11.7332ZM100.699 8.25728C100.079 10.7642 99.0607 13.4365 98.0138 15.2689C97.8145 15.31 97.6111 15.3299 97.4076 15.3293C97.2241 15.3311 97.041 15.3109 96.8624 15.2689C96.3596 14.2255 95.9209 13.1524 95.5486 12.0556C95.2389 13.1661 94.8184 14.2426 94.2933 15.2689C94.0793 15.3103 93.8617 15.3305 93.6437 15.3293C93.4552 15.3312 93.2671 15.311 93.0834 15.2689C91.909 13.1225 91.0897 10.7949 90.4557 8.25728C90.706 8.19239 90.964 8.16192 91.2225 8.16672C91.3807 8.16913 91.5383 8.17879 91.6959 8.19691C92.1844 10.209 92.851 12.1735 93.6878 14.0674L93.7179 14.1869C93.733 14.1429 93.7463 14.1121 93.7614 14.0674C94.2792 12.9054 94.7132 11.7079 95.0601 10.484C94.8385 9.7643 94.6321 9.01321 94.4262 8.26574C94.6768 8.20072 94.9352 8.17025 95.1942 8.17517C95.3517 8.17759 95.5093 8.18725 95.6657 8.20596C96.1976 10.458 96.8171 12.5441 97.497 14.0765L97.5272 14.1954C97.5404 14.1513 97.5555 14.1205 97.5706 14.0765C98.413 12.189 99.0657 10.2225 99.519 8.20596C99.6657 8.18785 99.8136 8.17759 99.9622 8.17578C100.211 8.16974 100.46 8.20053 100.7 8.26574M76.677 22.9652C76.715 22.4321 76.5478 21.9047 76.2097 21.4908C75.8753 21.0806 75.3935 20.8176 74.8675 20.7584C74.3495 20.6854 73.913 20.7705 73.5356 21.1563C73.3484 21.3555 73.1377 21.5306 72.9077 21.6768C72.418 21.9738 72.2653 22.3971 72.3268 22.9513C72.3739 23.383 72.3353 23.8286 72.4126 24.2537C72.5991 25.2861 73.3442 25.9225 74.3761 26.0167C75.142 26.0816 75.9133 26.0109 76.6547 25.8078C77.0242 25.7124 77.0574 25.745 77.0659 26.1374C77.0659 26.6851 77.0423 26.7485 76.5255 26.871C75.3765 27.1409 74.2233 27.2417 73.1009 26.7672C71.9779 26.2926 71.3373 25.402 71.2769 24.151C71.2388 23.486 71.2388 22.8194 71.2769 22.1543C71.298 21.8857 71.4115 21.6327 71.5975 21.4395C72.1348 20.9323 72.6994 20.4565 73.2887 20.0128C73.9601 19.5008 74.7371 19.636 75.4701 19.8425C77.1751 20.3183 77.9371 21.6731 77.7626 23.5044C77.7627 23.5915 77.7363 23.6765 77.6869 23.7482C77.6375 23.8199 77.5675 23.8749 77.4861 23.9059C77.4323 23.9259 77.3749 23.9346 77.3176 23.9312C76.0992 23.9312 74.8796 23.9397 73.6612 23.9312C73.5724 23.9312 73.4517 23.7875 73.4076 23.6837C73.3823 23.5606 73.3772 23.4341 73.3925 23.3094C73.3925 23.0624 73.5018 22.9682 73.7451 22.9682H76.6698M40.0642 18.3337H36.9276C36.4947 18.3337 36.4681 18.2896 36.4718 17.7468C36.4718 17.3 36.5019 17.2656 36.9264 17.2656H40.7857C41.1782 17.2656 41.2687 17.3525 41.2687 17.745V23.6988C41.2672 23.997 41.2404 24.2945 41.1884 24.5882C40.9348 26.0112 40.0956 26.8064 38.6381 27.0268C37.8659 27.1379 37.0804 27.1011 36.322 26.9175C36.0268 26.8475 35.8891 26.7074 35.9211 26.4055C35.9295 26.3135 35.9295 26.221 35.9211 26.129C35.8891 25.8084 36.0521 25.7879 36.3136 25.8186C36.8594 25.8959 37.4094 25.937 37.9601 25.9412C39.3125 25.9158 40.0292 25.2451 40.069 23.8817C40.1246 22.0946 40.0992 20.2977 40.1077 18.5142C40.0999 18.4566 40.0878 18.3997 40.0714 18.3439M63.0994 24.4209V22.3898C63.0866 22.172 63.1278 21.9544 63.2195 21.7565C63.3103 21.5595 63.449 21.3885 63.6228 21.2589C64.0239 20.96 64.4077 20.6387 64.7724 20.2965C65.3798 19.7042 66.0844 19.6022 66.8736 19.7483C68.5146 20.052 69.5078 21.2348 69.5181 22.9344C69.5265 24.151 69.5181 25.3676 69.5181 26.583C69.5181 26.9996 69.4843 27.028 69.0701 27.0334C68.4422 27.0334 68.444 27.0334 68.4422 26.4122C68.4422 25.265 68.4561 24.1172 68.4259 22.9706C68.3921 21.6804 67.5281 20.7995 66.2879 20.7777C66.0466 20.7866 65.8132 20.8659 65.6165 21.006C65.2204 21.2879 64.8666 21.6291 64.482 21.9328C64.3789 22.0126 64.2972 22.1166 64.2439 22.2357C64.1906 22.3547 64.1674 22.485 64.1765 22.615C64.185 23.9125 64.1765 25.2094 64.1765 26.5063C64.1765 27.0298 64.1765 27.0316 63.6349 27.0316C63.1314 27.0316 63.1012 27.0026 63.1012 26.4858V24.4191M56.7863 22.3747V24.5097C56.7948 24.6817 56.7622 24.8538 56.6927 25.0108C56.6227 25.1678 56.5164 25.3054 56.3836 25.4123C55.8499 25.8543 55.321 26.3029 54.7842 26.7418C54.2474 27.1802 53.6485 27.1361 53.0393 27.025C51.5021 26.7472 50.4044 25.6496 50.3779 23.994C50.3573 22.7092 50.3779 21.4244 50.3646 20.1389C50.3646 19.8443 50.4902 19.7163 50.777 19.7417C50.8567 19.7501 50.9364 19.7501 51.0154 19.7417C51.3379 19.7072 51.4484 19.8503 51.4484 20.1782C51.4484 21.4292 51.4381 22.682 51.4918 23.9325C51.5462 25.1835 52.418 25.9805 53.628 26.004C53.8387 26.0058 54.0446 25.943 54.2191 25.8235C54.6678 25.4938 55.0959 25.1369 55.5009 24.7548C55.6301 24.6045 55.7001 24.4106 55.6989 24.2114C55.7158 22.8915 55.6989 21.5711 55.7158 20.2519C55.7158 20.081 55.8016 19.8063 55.8837 19.793C56.1576 19.7625 56.4347 19.7764 56.7042 19.834C56.7465 19.834 56.7827 20.0333 56.7827 20.1408V22.3783L56.7863 22.3747ZM85.8544 23.6137C85.8544 24.8423 85.9093 26.0728 85.8405 27.2967C85.7929 28.0238 85.4806 28.7084 84.9626 29.2209C84.4494 29.7287 83.7647 30.026 83.0432 30.0541C82.5828 30.071 82.1217 30.052 81.6642 29.9974C81.5979 29.9826 81.5362 29.9518 81.4845 29.9079C81.4327 29.8639 81.3925 29.808 81.3671 29.745C81.342 29.5214 81.3555 29.2951 81.407 29.076C81.407 29.0434 81.6105 29.0416 81.7191 29.0368C82.201 29.0198 82.6961 29.0742 83.161 28.977C84.1191 28.7753 84.6964 28.0574 84.7682 27.0642C84.8068 26.5281 84.8141 25.9871 84.8153 25.4479V20.2506C84.8153 19.7543 84.8292 19.7386 85.3424 19.7386C85.8556 19.7386 85.8876 19.7694 85.8894 20.2355V23.6076H85.8544" fill="#B5BFDC"/>
<path d="M83.9077 25.9309C83.9252 26.1826 83.9209 26.4356 83.8938 26.6868C83.8727 26.7521 83.8371 26.8117 83.7894 26.8611C83.7418 26.9105 83.6835 26.9484 83.6191 26.9718C81.7576 27.4137 79.5581 26.4598 79.4826 24.0592C79.4403 22.7532 79.4826 21.4448 79.4657 20.134C79.4657 19.8303 79.5864 19.7156 79.8702 19.738H80.0731C80.4957 19.738 80.5428 19.7845 80.5446 20.2071V23.2688C80.5392 23.5436 80.5501 23.8183 80.5784 24.0912C80.768 25.5928 81.9508 26.1494 83.1711 26.045C83.392 26.0269 83.6118 25.9737 83.904 25.926M47.9747 23.3624C47.9747 21.827 47.0581 20.736 45.597 20.736C44.1353 20.736 43.2206 21.8319 43.2206 23.3624C43.2206 24.8936 44.1353 25.9755 45.597 25.9755C47.0581 25.9755 47.9747 24.8948 47.9747 23.3624ZM42.0094 23.3624C42.0094 21.2468 43.5593 19.6082 45.6423 19.6082C47.7247 19.6082 49.1846 21.245 49.1846 23.3624C49.1846 25.4805 47.6341 27.1016 45.5529 27.1016C43.4723 27.1016 42.0094 25.4805 42.0094 23.3624ZM62.0824 20.9159C61.6671 20.8119 61.2402 20.7612 60.8121 20.765C60.2817 20.744 59.7558 20.8693 59.2918 21.1272V26.9072C59.0926 26.9494 58.8891 26.97 58.6856 26.9669C58.4828 26.9689 58.2803 26.9486 58.0818 26.9066V20.5935C58.6572 20.0984 59.7344 19.6335 60.8858 19.6335C61.3933 19.6254 61.8984 19.7067 62.3777 19.8738C62.4026 20.2471 62.2984 20.6176 62.0824 20.9232" fill="#B5BFDC"/>
</g>
<defs>
<clipPath id="clip0_2630_12934">
<rect width="109.283" height="32" fill="white"/>
</clipPath>
</defs>
</svg>
