<svg width="99" height="32" viewBox="0 0 99 32" fill="none" xmlns="http://www.w3.org/2000/svg">
<g clip-path="url(#clip0_2543_12415)">
<g clip-path="url(#clip1_2543_12415)">
<path d="M62.1003 12.766L60.7226 12.766L59.2046 17.3205L57.6737 12.766L56.2959 12.766L58.6688 19.2341L59.7276 19.2341L62.1003 12.766Z" fill="#B5BFDC"/>
<path d="M64.5721 11.4903L64.5721 10.1124L63.1943 10.1124L63.1943 11.4903L64.5721 11.4903ZM64.5336 19.2341L64.5336 12.766L63.2323 12.766L63.2323 19.2341L64.5336 19.2341Z" fill="#B5BFDC"/>
<path d="M69.3016 19.2341L69.3016 18.1242L68.7653 18.1242C68.5188 18.1242 68.3363 18.0604 68.2172 17.9329C68.1064 17.7967 68.0512 17.6097 68.0512 17.3715L68.0512 13.8759L69.3016 13.8759L69.3016 12.8808L68.0512 12.8808L68.0512 10.9161L66.7499 10.9161L66.7499 12.8808L66.0098 12.8808L66.0098 13.8759L66.7499 13.8759L66.7499 17.4353C66.7499 17.6649 66.7837 17.8903 66.8518 18.1115C66.9283 18.3241 67.0391 18.5154 67.1837 18.6856C67.3283 18.8472 67.5108 18.979 67.7324 19.081C67.9535 19.1831 68.2172 19.2341 68.523 19.2341L69.3016 19.2341Z" fill="#B5BFDC"/>
<path d="M76.0093 19.2341L76.0093 18.0732L72.3098 18.0732L75.1548 14.5903C75.4351 14.2501 75.6478 13.9397 75.7924 13.659C75.937 13.3698 76.0093 13.0254 76.0093 12.6257C76.0093 12.2344 75.9459 11.8815 75.8179 11.5668C75.6905 11.2521 75.5121 10.9842 75.2822 10.763C75.0529 10.5419 74.7761 10.3718 74.4532 10.2527C74.1296 10.1337 73.7729 10.0741 73.3812 10.0741C72.9989 10.0741 72.6458 10.1379 72.3228 10.2655C71.9992 10.3846 71.7189 10.5547 71.4807 10.7758C71.2508 10.9969 71.0683 11.2691 70.932 11.5923C70.8046 11.907 70.7406 12.2557 70.7406 12.6384L72.0419 12.6384C72.0419 12.3833 72.0798 12.1664 72.1569 11.9878C72.2333 11.8092 72.3311 11.6646 72.4502 11.554C72.5776 11.4434 72.7222 11.3627 72.884 11.3116C73.0452 11.2606 73.2111 11.2351 73.3812 11.2351C73.8067 11.2351 74.1344 11.3627 74.3637 11.6178C74.5936 11.8729 74.708 12.2047 74.708 12.6129C74.708 12.8425 74.6701 13.0509 74.5936 13.238C74.5166 13.4167 74.3933 13.6123 74.2232 13.8249L70.7275 18.0732L70.7275 19.2341L76.0093 19.2341Z" fill="#B5BFDC"/>
<path d="M82.697 19.1956L82.697 12.7658L81.4336 12.7658L81.4336 13.4547C81.1871 13.157 80.9275 12.9571 80.6555 12.8551C80.3918 12.7445 80.0854 12.6892 79.737 12.6892C79.0733 12.6892 78.5548 12.8764 78.1802 13.2506C77.8656 13.5652 77.6659 13.9437 77.5811 14.386C77.4958 14.8283 77.4531 15.3258 77.4531 15.8787C77.4531 16.4315 77.4958 16.929 77.5811 17.3713C77.6659 17.8135 77.8656 18.192 78.1802 18.5068C78.3592 18.6854 78.5802 18.8257 78.8439 18.9277C79.1076 19.0298 79.401 19.0808 79.7239 19.0808C80.0558 19.0808 80.358 19.0298 80.63 18.9277C80.902 18.8172 81.1574 18.6215 81.3956 18.3409L81.3956 19.1701C81.3956 19.3913 81.3654 19.5996 81.3062 19.7952C81.2552 19.9908 81.1657 20.1652 81.0383 20.3183C80.9192 20.4714 80.7616 20.5905 80.566 20.6755C80.3794 20.7691 80.1494 20.8159 79.8774 20.8159C79.5539 20.8159 79.2902 20.7691 79.0863 20.6755C78.8825 20.582 78.678 20.4374 78.4742 20.2418L77.6445 21.071C77.9847 21.3857 78.3248 21.6068 78.6656 21.7344C79.014 21.862 79.4348 21.9258 79.9284 21.9258C80.3622 21.9258 80.7491 21.8578 81.0893 21.7216C81.4294 21.5856 81.7186 21.3942 81.9568 21.1476C82.1951 20.9094 82.3776 20.6245 82.5056 20.2928C82.633 19.9611 82.697 19.5954 82.697 19.1956ZM81.3956 15.8787C81.3956 16.1338 81.3826 16.3847 81.3571 16.6314C81.3316 16.8695 81.2724 17.0864 81.1788 17.282C81.0851 17.4691 80.9488 17.6222 80.7705 17.7412C80.6004 17.8518 80.3705 17.9071 80.0813 17.9071C79.7838 17.9071 79.5456 17.8518 79.3672 17.7412C79.1971 17.6222 79.065 17.4691 78.9714 17.282C78.8866 17.0864 78.8268 16.8695 78.793 16.6314C78.7675 16.3847 78.7545 16.1338 78.7545 15.8787C78.7545 15.6235 78.7675 15.3769 78.793 15.1387C78.8268 14.8921 78.8866 14.6752 78.9714 14.4881C79.065 14.2925 79.1971 14.1394 79.3672 14.0288C79.5456 13.9097 79.7838 13.8502 80.0813 13.8502C80.3705 13.8502 80.6004 13.9097 80.7705 14.0288C80.9488 14.1394 81.0851 14.2925 81.1788 14.4881C81.2724 14.6752 81.3316 14.8921 81.3571 15.1387C81.3826 15.3769 81.3956 15.6235 81.3956 15.8787Z" fill="#B5BFDC"/>
<path d="M89.8512 15.9938C89.8512 15.4495 89.8003 14.9732 89.6983 14.5649C89.5964 14.1482 89.392 13.7782 89.0862 13.455C88.8734 13.2339 88.6056 13.051 88.282 12.9064C87.9674 12.7618 87.5893 12.6896 87.1466 12.6896C86.7046 12.6896 86.3259 12.7618 86.0112 12.9064C85.6966 13.051 85.4329 13.2339 85.2207 13.455C84.9143 13.7782 84.7099 14.1482 84.608 14.5649C84.506 14.9732 84.4551 15.4495 84.4551 15.9938C84.4551 16.5466 84.506 17.0314 84.608 17.4482C84.7099 17.8564 84.9143 18.2221 85.2207 18.5453C85.4329 18.7664 85.6966 18.9493 86.0112 19.0939C86.3259 19.2385 86.7046 19.3108 87.1466 19.3108C87.5893 19.3108 87.9674 19.2385 88.282 19.0939C88.6056 18.9493 88.8734 18.7664 89.0862 18.5453C89.392 18.2221 89.5964 17.8564 89.6983 17.4482C89.8003 17.0314 89.8512 16.5466 89.8512 15.9938ZM88.5499 15.9938C88.5499 16.351 88.5244 16.687 88.4734 17.0016C88.4225 17.3163 88.2992 17.5715 88.1037 17.7671C87.8483 18.0223 87.5294 18.1498 87.1466 18.1498C86.7727 18.1498 86.458 18.0223 86.2026 17.7671C86.0071 17.5715 85.8838 17.3163 85.8329 17.0016C85.7819 16.687 85.7564 16.351 85.7564 15.9938C85.7564 15.6365 85.7819 15.3006 85.8329 14.9859C85.8838 14.6712 86.0071 14.4161 86.2026 14.2205C86.4491 13.9738 86.7638 13.8505 87.1466 13.8505C87.5383 13.8505 87.8572 13.9738 88.1037 14.2205C88.2992 14.4161 88.4225 14.6712 88.4734 14.9859C88.5244 15.3006 88.5499 15.6365 88.5499 15.9938Z" fill="#B5BFDC"/>
<path d="M-1.38149e-06 0.395084L5.30527e-07 32L47.4074 32L47.4074 0.395082L-1.38149e-06 0.395084Z" fill="#B5BFDC"/>
<path d="M14.9849 17.1326C14.9849 16.9725 14.7333 15.5912 14.5732 15.4815C14.1158 15.3214 13.7911 15.1613 13.201 14.9097C11.9524 14.3746 10.6443 13.78 9.8622 13.4598C9.33112 13.2525 8.82611 12.9839 8.35743 12.6594C8.19316 12.5741 8.05225 12.4499 7.947 12.2976C7.84176 12.1454 7.77539 11.9696 7.7537 11.7858L7.68051 11.7492L7.37865 11.7858C7.37865 12.0511 7.41521 12.568 7.41521 13.2128C7.41521 13.8578 7.41521 14.4752 7.37865 14.992L7.37865 15.047L7.73539 15.047L7.77195 15.0103C7.82682 14.1916 7.93207 13.6656 8.51293 13.748C9.09379 13.8303 12.7802 15.4769 13.6356 15.8839C12.4052 16.4008 8.66386 18.2349 8.33912 18.2349C8.01438 18.2349 7.82226 17.9696 7.76739 17.2561L7.73082 17.2012L7.37402 17.2012L7.37402 17.2561C7.37402 17.5763 7.41065 18.6008 7.41065 19.0124C7.41065 19.4241 7.41065 20.2748 7.37402 20.9014L7.71251 20.938L7.78113 20.8648C7.80188 20.6258 7.90161 20.4005 8.06469 20.2245C8.75737 19.7756 9.50232 19.4131 10.283 19.145C10.8684 18.9118 12.2497 18.2623 13.1599 17.869C13.7499 17.622 14.5321 17.2973 14.9254 17.192L14.9849 17.1326Z" fill="white"/>
<path d="M28.4004 11.7721L28.4004 20.7688L29.0911 20.7688L29.0911 11.7721L28.4004 11.7721Z" fill="white"/>
<path d="M24.5537 17.1233C22.898 14.3196 21.407 12.92 19.678 12.92C18.7175 12.92 17.3271 13.6701 17.3271 15.6963C17.3557 16.4236 17.6115 17.1236 18.0587 17.6979C18.5058 18.2722 19.1218 18.6919 19.8198 18.8979L20.0165 18.6143L20.0165 18.5458C19.5885 18.3532 19.2212 18.0473 18.9543 17.6612C18.6875 17.2751 18.5313 16.8234 18.5026 16.3549C18.4775 16.1093 18.5063 15.8613 18.5867 15.628C18.6672 15.3946 18.7974 15.1816 18.9684 15.0035C19.1394 14.8256 19.3471 14.6869 19.577 14.5973C19.807 14.5076 20.0537 14.469 20.3001 14.4842C22.1296 14.4842 23.5017 16.8672 25.1621 19.3599L25.7703 19.0122" fill="white"/>
<path d="M31.7305 16.2775C31.7305 18.6467 33.56 19.9365 35.8469 19.9365C38.1978 19.9365 39.6386 18.386 39.6386 16.4467C39.6386 13.7025 37.7313 12.7054 35.6868 12.7054C33.1941 12.7054 31.7351 14.0775 31.7351 16.2821L31.7305 16.2775ZM39.0897 16.1219C39.0897 17.4026 37.7542 18.2076 35.6868 18.2076C33.3176 18.2076 32.1787 17.3706 32.1787 16.3781C32.1787 15.1157 33.6378 14.4022 35.8652 14.4022C37.9646 14.4022 39.0669 15.1157 39.0669 16.1128" fill="white"/>
</g>
</g>
<defs>
<clipPath id="clip0_2543_12415">
<rect width="99" height="32" fill="white"/>
</clipPath>
<clipPath id="clip1_2543_12415">
<rect width="32" height="98.963" fill="white" transform="translate(0 32) rotate(-90)"/>
</clipPath>
</defs>
</svg>
