<svg width="102" height="32" viewBox="0 0 102 32" fill="none" xmlns="http://www.w3.org/2000/svg">
<path d="M2.96206 9.75036C2.96206 9.75036 -2.76655 15.1648 1.70958 21.9131L8.39643 32C8.39643 32 14.125 26.5856 9.65152 19.8373L2.96206 9.75036Z" fill="#B5BFDC"/>
<path d="M15.2227 10.0869L8.53584 0C8.53584 0 2.80723 5.41441 7.28076 12.1627L13.9702 22.2496C13.9702 22.2496 19.6962 16.8352 15.2227 10.0869Z" fill="#B5BFDC"/>
<path d="M36.2081 11.3598V13.8447H32.0158V26.7112H28.8728V13.8447H24.6805V11.3598H36.2081Z" fill="#B5BFDC"/>
<path d="M41.7541 25.8526C40.5376 25.1953 39.5255 24.2297 38.8247 23.0577C38.1144 21.8218 37.7414 20.4285 37.7414 19.0115C37.7414 17.5945 38.1144 16.2013 38.8247 14.9653C39.526 13.7938 40.538 12.8283 41.7541 12.1705C42.9995 11.5053 44.3964 11.1567 45.8162 11.1567C47.236 11.1567 48.6329 11.5053 49.8783 12.1705C51.0884 12.8291 52.0934 13.7948 52.7869 14.9653C53.4888 16.204 53.857 17.5962 53.857 19.0115C53.857 20.4269 53.4888 21.8191 52.7869 23.0577C52.0921 24.2308 51.083 25.197 49.8679 25.8526C48.6239 26.5162 47.2288 26.864 45.811 26.864C44.3932 26.864 42.9981 26.5162 41.7541 25.8526ZM48.3134 23.4871C49.0423 23.062 49.6293 22.4398 50.0033 21.6959C50.4244 20.8541 50.6333 19.9264 50.6126 18.9899C50.634 18.0575 50.425 17.1337 50.0033 16.2967C49.6291 15.5562 49.0418 14.9382 48.3134 14.5182C47.5506 14.0984 46.6865 13.8861 45.811 13.9033C44.9323 13.8868 44.065 14.0991 43.2982 14.5182C42.5642 14.9353 41.972 15.5538 41.5953 16.2967C41.1745 17.1339 40.9664 18.0577 40.9885 18.9899C40.967 19.9262 41.175 20.8539 41.5953 21.6959C41.9718 22.4422 42.5637 23.0648 43.2982 23.4871C44.0619 23.915 44.9305 24.1319 45.811 24.1147C46.6882 24.1327 47.5537 23.9156 48.3134 23.4871Z" fill="#B5BFDC"/>
<path d="M64.3127 26.7109L60.8417 20.7274H59.3549V26.7109H56.1989V11.3595H62.1046C63.177 11.3291 64.2417 11.544 65.2137 11.9871C66.0133 12.3528 66.6839 12.9417 67.1406 13.6792C67.602 14.4689 67.8226 15.3708 67.7765 16.2787C67.7303 17.1866 67.4194 18.0627 66.8802 18.804C66.2183 19.6566 65.268 20.2526 64.1982 20.486L67.9634 26.7109H64.3127ZM59.3653 18.4178H62.0005C62.8572 18.4178 63.4977 18.2171 63.9169 17.8131C64.1352 17.5902 64.304 17.3258 64.4129 17.0364C64.5218 16.747 64.5683 16.4388 64.5497 16.1311C64.5684 15.8299 64.5216 15.5282 64.4126 15.2458C64.3036 14.9634 64.1347 14.7066 63.9169 14.4923C63.4977 14.1061 62.8572 13.9104 62.0005 13.9104H59.3549L59.3653 18.4178Z" fill="#B5BFDC"/>
<path d="M70.9248 14.9541C71.5982 13.7834 72.5893 12.8163 73.7891 12.1593C75.0313 11.483 76.4341 11.1378 77.8564 11.1582C79.4989 11.1264 81.1117 11.5886 82.4758 12.4819C83.7954 13.3593 84.7726 14.6459 85.249 16.133H81.6191C81.299 15.4433 80.7678 14.8672 80.0984 14.4841C79.4064 14.1086 78.6246 13.9192 77.833 13.9353C76.9746 13.9203 76.1286 14.1365 75.3879 14.5603C74.669 14.9848 74.0904 15.6022 73.7214 16.3388C73.3268 17.1791 73.1225 18.0925 73.1225 19.0168C73.1225 19.9411 73.3268 20.8546 73.7214 21.6948C74.0896 22.432 74.6683 23.0497 75.3879 23.4734C76.1286 23.8971 76.9746 24.1134 77.833 24.0984C78.626 24.1148 79.4088 23.9217 80.0984 23.5394C80.7673 23.15 81.2979 22.5701 81.6191 21.8778H85.249C84.782 23.3688 83.8085 24.6601 82.4888 25.539C81.1187 26.4283 79.5015 26.8851 77.8564 26.8475C76.4345 26.8675 75.032 26.5232 73.7891 25.849C72.5924 25.1936 71.6019 24.2316 70.9248 23.0668C70.2377 21.8213 69.878 20.4288 69.878 19.0143C69.878 17.5997 70.2377 16.2073 70.9248 14.9617V14.9541Z" fill="#B5BFDC"/>
<path d="M101 11.3598V26.7112H97.8467V20.1789H91.1051V26.7112H87.9544V11.3598H91.1051V17.6711H97.8441V11.3598H101Z" fill="#B5BFDC"/>
</svg>
