<svg width="97" height="32" viewBox="0 0 97 32" fill="none" xmlns="http://www.w3.org/2000/svg">
<path d="M47.2747 13.8084C46.6705 14.4904 45.3612 14.9837 43.9943 14.9837C40.8726 14.9837 38.7145 12.8946 38.7145 9.73189C38.7145 6.81579 40.5126 4.48012 43.9801 4.48012C45.318 4.48012 46.4545 4.94422 47.059 5.53903L46.0374 7.2799C45.4908 6.94612 44.9299 6.65592 43.9801 6.65592C42.4265 6.65592 41.1604 7.72961 41.1604 9.73151C41.1604 11.5303 42.3976 12.8071 44.2104 12.8071C44.9299 12.8071 45.7211 12.5749 46.397 12.0672L47.2747 13.8084Z" fill="#B5BFDC"/>
<path d="M49.0728 14.8093V4.65435C49.6338 4.65435 52.2092 4.62517 52.497 4.62517C55.245 4.62517 56.2233 6.00347 56.2233 7.87466C56.2233 9.74585 55.0725 10.5293 54.5259 10.8051L57.4609 14.8093H54.6698L52.2239 11.2549H51.3752V14.8093H49.0728ZM51.3748 6.83014V9.07868H52.2092C53.0869 9.07868 53.7775 8.75968 53.7775 7.90345C53.7775 7.33782 53.4897 6.80097 52.3821 6.80097C52.0368 6.80097 51.8493 6.81537 51.3748 6.83014Z" fill="#B5BFDC"/>
<path d="M63.1711 4.48012C66.2354 4.48012 68.5231 6.49679 68.5231 9.73189C68.5231 12.967 66.2354 14.9837 63.1711 14.9837C60.1068 14.9837 57.8191 12.967 57.8191 9.73189C57.8191 6.787 59.9629 4.48012 63.1711 4.48012ZM63.1711 12.8075C65.0846 12.8075 66.0772 11.4436 66.0772 9.73189C66.0772 7.87509 64.7968 6.65629 63.1711 6.65629C61.5454 6.65629 60.265 7.87509 60.265 9.73189C60.265 11.4728 61.5597 12.8075 63.1711 12.8075Z" fill="#B5BFDC"/>
<path d="M77.5427 14.8095L72.7663 8.71624V14.8095H70.6082V4.65447H72.4496L77.226 10.7765V4.65447H79.3841V14.8095H77.5427Z" fill="#B5BFDC"/>
<path d="M85.0812 4.65434H87.1386L91.3251 14.8097H88.865L88.0305 12.6771H84.0454L83.2109 14.8097H80.8947L85.0812 4.65434ZM84.9088 10.5009H87.1675L86.0453 7.6284L84.9088 10.5009Z" fill="#B5BFDC"/>
<path d="M49.7631 21.1103H54.0646V25.6365C53.1727 26.536 51.547 27.0728 50.2955 27.0728C46.8427 27.0728 44.9003 24.9838 44.9003 21.821C44.9003 18.9049 46.8424 16.5693 50.0077 16.5693C51.5038 16.5693 52.4821 16.9754 53.3023 17.6282L52.3382 19.4998C51.9355 19.0644 51.0578 18.7454 50.2809 18.7454C48.6262 18.7454 47.3458 19.732 47.3458 21.821C47.3458 23.6926 48.5255 24.8966 50.3237 24.8966C50.9278 24.8966 51.6762 24.6064 51.9062 24.3889V23.2865H49.7624L49.7631 21.1103Z" fill="#B5BFDC"/>
<path d="M56.2948 26.8984V16.7434C56.8558 16.7434 59.4313 16.7142 59.7191 16.7142C62.467 16.7142 63.4453 18.0925 63.4453 19.9637C63.4453 21.8349 62.2945 22.6184 61.7479 22.8942L64.6829 26.8984H61.8918L59.4459 23.3439H58.5972V26.8984H56.2948ZM58.5968 18.9192V21.1677H59.4313C60.3089 21.1677 60.9995 20.8487 60.9995 19.9925C60.9995 19.4269 60.7117 18.89 59.6041 18.89C59.2588 18.89 59.0713 18.9044 58.5968 18.9192Z" fill="#B5BFDC"/>
<path d="M70.3932 16.5693C73.4575 16.5693 75.7452 18.5859 75.7452 21.821C75.7452 25.0561 73.4575 27.0728 70.3932 27.0728C67.3289 27.0728 65.0412 25.0561 65.0412 21.821C65.0412 18.8761 67.185 16.5693 70.3932 16.5693ZM70.3932 24.8966C72.3067 24.8966 73.2993 23.5327 73.2993 21.821C73.2993 19.9642 72.0189 18.7454 70.3932 18.7454C68.7675 18.7454 67.4871 19.9642 67.4871 21.821C67.4871 23.5619 68.7818 24.8966 70.3932 24.8966Z" fill="#B5BFDC"/>
<path d="M86.1897 22.7058C86.1897 25.8106 84.233 27.0725 82.0749 27.0725C79.4852 27.0725 77.687 25.5783 77.687 22.6043V16.7433H79.989V22.111C79.989 23.6923 80.4639 24.8964 82.0749 24.8964C83.4703 24.8964 83.8877 23.8662 83.8877 22.2413V16.7429H86.1897V22.7058Z" fill="#B5BFDC"/>
<path d="M88.8499 26.8985V16.7435C89.4108 16.7435 91.1518 16.7144 91.9284 16.7144C94.9927 16.7144 96 18.3245 96 20.0802C96 21.8358 94.6046 23.4895 92.2737 23.4895C92.0581 23.4895 91.511 23.4895 91.1515 23.446V26.8989L88.8499 26.8985ZM91.1518 18.9193V21.2406C91.4828 21.2842 91.8713 21.313 92.202 21.313C92.8061 21.313 93.5541 21.0519 93.5541 20.0654C93.5541 19.166 92.9785 18.8902 92.1587 18.8902C91.8567 18.8902 91.6264 18.9046 91.1518 18.9193Z" fill="#B5BFDC"/>
<path d="M13.1638 27.9391C22.4537 27.3534 22.4985 26.7768 31.7858 26.1924V26.7644C22.4985 27.8161 22.4543 28.875 13.1638 29.9234C7.6148 28.7264 5.54901 27.5268 0 26.3285V26.2264C5.54901 27.2952 7.6148 28.3639 13.1638 29.4221V27.9391ZM13.1638 25.8665C22.4537 25.4673 22.4985 25.0687 31.7858 24.6702V25.2448C22.4985 26.1178 22.4543 26.9921 13.1638 27.8573C7.6148 26.8521 5.54901 25.8586 0 24.8541V24.7533C5.54901 25.6165 7.6148 26.4895 13.1638 27.3645V25.8665ZM13.1638 23.8037C22.4537 23.5825 22.4985 23.3671 31.7858 23.144V23.7219C22.4985 24.4097 22.4543 25.0962 13.1638 25.7938C7.6148 24.9856 5.54901 24.1774 0 23.3678V23.2651C5.54901 23.9424 7.6148 24.6224 13.1638 25.2938V23.8037ZM13.1638 21.7343C22.4537 21.6957 22.4985 21.6577 31.7858 21.6217V22.1976C22.4985 22.7081 22.4543 23.2094 13.1638 23.7212C7.6148 23.1073 5.54901 22.5039 0 21.8887V21.7906C5.54901 22.2637 7.6148 22.7474 13.1638 23.2304V21.7343ZM13.1638 19.6695C22.4537 19.8102 22.4985 19.9588 31.7858 20.0975V20.6734C22.4985 21.0007 22.4543 21.3279 13.1638 21.6512C7.6148 21.2408 5.54901 20.8213 0 20.4156V20.3109C5.54901 20.5903 7.6148 20.8685 13.1638 21.1577V19.6695ZM13.1638 17.5982L31.7858 18.5733V19.1486L13.1638 19.587C7.6148 19.3626 5.54901 19.1486 0 18.9274V18.8253L13.1638 19.087V17.5982ZM13.1638 15.4326L26.7196 16.676V17.252L13.1638 17.4195L5.06615 17.3272V17.2251L13.1638 16.928V15.4326ZM13.1638 2.20223C17.6861 3.31697 22.2047 4.43128 26.7196 5.54516V6.12173C22.1982 5.48037 17.6796 4.83639 13.1638 4.18979C10.462 4.839 7.76926 5.48953 5.06615 6.13089V6.0301C7.76926 5.24804 10.4626 4.47775 13.1638 3.69633V2.20223ZM13.1638 4.41296C17.6861 5.40729 22.2047 6.40467 26.7196 7.40511V7.97382C22.1982 7.45026 17.6796 6.9267 13.1638 6.40314C10.462 6.93325 7.76926 7.47251 5.06615 8.00131V7.8966C7.76926 7.22775 10.4626 6.56741 13.1638 5.89856V4.41296ZM13.1638 6.61649C17.6861 7.49738 22.2047 8.37631 26.7196 9.25327V9.82984L13.1638 8.60471C10.462 9.0229 7.76926 9.43848 5.06615 9.86518V9.76374C7.76926 9.20812 10.4626 8.65707 13.1638 8.10079V6.61649ZM13.1638 8.8161C17.6861 9.58006 22.2047 10.3436 26.7196 11.1067V11.6806C22.198 11.3953 17.6861 11.0955 13.1638 10.8082C10.462 11.1165 7.76926 11.4221 5.06615 11.7389V11.6348C7.76926 11.1911 10.4626 10.7539 13.1638 10.3168V8.8161ZM13.1638 11.0288C17.6861 11.6702 22.2047 12.3146 26.7196 12.962V13.538L13.1638 13.0079C10.462 13.2042 7.76926 13.4005 5.06615 13.5923V13.4902C7.76926 13.163 10.4626 12.8403 13.1638 12.5151V11.0288ZM13.1638 13.231C17.6861 13.7607 22.2047 14.2873 26.7196 14.8109V15.3861C22.1982 15.3333 17.6796 15.2779 13.1638 15.2199C10.462 15.3024 7.76926 15.3776 5.06615 15.4601V15.3573C7.76926 15.1453 10.4626 14.9293 13.1638 14.716V13.231ZM13.1638 0L26.7196 3.69699V4.27422L13.1638 1.98364L5.06615 4.27422V4.17147L13.1638 1.48495V0ZM13.1638 30.0111L31.7858 27.7271V28.2925L13.1638 32L0 27.8187V27.7062L13.1638 31.502V30.0111Z" fill="#B5BFDC"/>
</svg>
