<svg width="104" height="32" viewBox="0 0 104 32" fill="none" xmlns="http://www.w3.org/2000/svg">
<g clip-path="url(#clip0_2543_12337)">
<g clip-path="url(#clip1_2543_12337)">
<mask id="mask0_2543_12337" style="mask-type:luminance" maskUnits="userSpaceOnUse" x="0" y="0" width="108" height="32">
<path d="M108 0H0V32H108V0Z" fill="white"/>
</mask>
<g mask="url(#mask0_2543_12337)">
<path d="M10.9939 26.5134L12.5024 25.0565L14.011 26.5134L12.5024 28.022L10.9939 26.5134ZM15.3335 26.5134L9.69196 20.8201L10.2912 20.2209L16.6871 26.5754L12.5024 30.6464L8.36939 26.5134L11.1902 23.6926L11.8411 24.3436L9.62996 26.5031L12.5024 29.3755L15.3335 26.5134ZM10.9939 19.5596L12.5024 18.051L14.011 19.5079L12.5024 21.0165L10.9939 19.5596ZM17.9994 19.5596L19.5079 18.051L21.0165 19.5596L19.5079 21.0165L17.9994 19.5596ZM3.98838 19.5596L5.49693 17.9994L7.00549 19.5079L5.49693 21.0165L3.98838 19.5596ZM11.2005 16.6768L11.7998 17.3277L5.49693 23.6823L1.31224 19.4976L4.18469 16.6768L4.83565 17.3277L2.62448 19.4976L5.44527 22.37L11.2005 16.6768ZM13.205 21.6674L18.1957 16.6768L18.8466 17.3277L13.8043 22.3184L13.205 21.6674ZM7.51178 15.9742L8.96868 14.5173L10.4772 16.0258L9.02034 17.5344L7.51178 15.9742ZM14.5276 16.0258L15.9845 14.5173L17.4931 16.0258L15.9845 17.5344L14.5276 16.0258ZM9.68163 13.8147L10.2809 13.2154L15.3232 18.2577L14.7239 18.857L9.68163 13.8147ZM22.3287 19.5079L16.6355 13.8663L17.3381 13.2154L23.6409 19.5182L19.5079 23.7029L16.6871 20.8305L17.2864 20.1795L19.4976 22.339L22.3287 19.5079ZM3.98838 12.5024L5.49693 11.0455L7.00549 12.5541L5.49693 14.011L3.98838 12.5024ZM10.9939 12.5024L12.5024 11.0455L14.011 12.5024L12.5024 14.011L10.9939 12.5024ZM17.9994 12.5024L19.5079 10.9939L21.0165 12.5024L19.5079 14.011L17.9994 12.5024ZM6.15822 14.6723L11.2005 9.68163L11.8515 10.3326L6.80917 15.3232L6.15822 14.6723ZM13.1637 14.7136L19.5079 8.36939L23.6926 12.5024L20.8718 15.3232L20.2209 14.7239L22.339 12.5128L19.5182 9.69196L13.825 15.3335L13.1637 14.7136ZM1.31224 12.5024L5.49693 8.31773L8.31773 11.1902L7.66677 11.8411L5.50726 9.68163L2.67614 12.5024L8.31773 18.1957L7.71844 18.8466L1.31224 12.5024ZM10.9939 5.44527L12.5024 3.97804L14.011 5.4866L12.5024 7.00549L10.9939 5.44527ZM8.36939 5.44527L12.5024 1.35357L16.6355 5.4866L13.8147 8.30739L13.1637 7.65644L15.3232 5.49693L12.5024 2.67614L9.68163 5.49693L15.3232 11.1902L14.7239 11.8928L8.36939 5.44527ZM12.5024 0L7.00549 5.53826L10.5392 8.96868L9.03067 10.5806L5.49693 7.04682L0 12.5024L3.48208 16.0362L0 19.5079L5.49693 24.9945L8.97901 21.5124L10.4876 23.021L7.00549 26.5031L12.5024 32L17.9477 26.5547L14.5173 23.021L15.9742 21.5124L19.5079 24.9945L24.9532 19.5492L21.5331 16.0155L25.0152 12.4818L19.5286 6.99516L15.9948 10.4772L14.4863 9.02034L18.02 5.4866L12.5024 0Z" fill="#B5BFDC"/>
<path d="M34.8827 12.647L36.1226 16.1911H33.5808L34.8827 12.647ZM34.1077 10.6528L30.667 19.6732H32.4752L33.3018 17.4207H36.4532L37.2902 19.6732H39.088L35.6576 10.6528H34.1077Z" fill="#B5BFDC"/>
<path d="M46.9724 13.8973V19.6835H45.2158V10.6528H46.5694L51.281 16.5734V10.6632H53.0376V19.6835H51.6117L46.9724 13.8973Z" fill="#B5BFDC"/>
<path d="M64.6403 16.1911L63.4004 12.647L62.0985 16.1911H64.6403ZM62.6151 10.6528H64.165L67.5955 19.6732H65.7873L64.9503 17.4207H61.7989L60.9723 19.6732H59.1641L62.6151 10.6528Z" fill="#B5BFDC"/>
<path d="M75.4899 13.8973V19.6835H73.7334V10.6528H75.087L79.7986 16.5734V10.6632H81.5448V19.6835H80.1189L75.4899 13.8973Z" fill="#B5BFDC"/>
<path d="M95.3184 12.1924H92.4356V19.6835H90.6894V12.1924H87.8066V10.6528H95.3184V12.1924Z" fill="#B5BFDC"/>
<path d="M103.326 10.6528H101.58V19.6732H103.326V10.6528Z" fill="#B5BFDC"/>
<path d="M35.131 24.5709H35.8543C35.9163 24.5709 35.9783 24.5606 36.03 24.5296C36.0816 24.4986 36.123 24.4676 36.1643 24.4159C36.2056 24.3642 36.2263 24.3126 36.247 24.2609C36.2676 24.1989 36.278 24.1369 36.278 24.0749C36.278 24.0129 36.2676 23.9406 36.2366 23.8889C36.216 23.8269 36.1746 23.7753 36.1436 23.734C36.1023 23.6926 36.061 23.6513 35.999 23.6203C35.937 23.5893 35.8853 23.579 35.8233 23.579H35.131V24.5709ZM34.9141 25.5835V23.3723H35.844C35.937 23.3723 36.03 23.393 36.1023 23.4343C36.185 23.4756 36.247 23.5273 36.309 23.5893C36.371 23.6513 36.4123 23.7236 36.4433 23.8166C36.4743 23.8993 36.4949 23.9819 36.4949 24.0749C36.4949 24.1576 36.4846 24.2299 36.4536 24.3126C36.433 24.3849 36.3916 24.4469 36.3503 24.5089C36.309 24.5709 36.2573 24.6226 36.1953 24.6639C36.1333 24.7052 36.061 24.7259 35.9887 24.7465L36.5259 25.5938H36.278L35.7613 24.7775H35.131V25.5938L34.9141 25.5835Z" fill="#B5BFDC"/>
<path d="M37.2598 23.3723V25.5835H38.7373V25.3872H37.4768V24.5399H38.5513V24.3642H37.4768V23.5686H38.7063V23.3723H37.2598Z" fill="#B5BFDC"/>
<path d="M40.7006 23.7856C40.6386 23.7133 40.556 23.6513 40.4526 23.61C40.3493 23.5686 40.2253 23.548 40.1013 23.548C39.905 23.548 39.7707 23.5893 39.6777 23.6616C39.595 23.7339 39.5434 23.8373 39.5434 23.9613C39.5434 24.0233 39.5537 24.0853 39.5847 24.1163C39.6054 24.1576 39.6467 24.1989 39.6984 24.2299C39.75 24.2609 39.812 24.2919 39.8843 24.3126C39.967 24.3332 40.0497 24.3539 40.1633 24.3746C40.277 24.4056 40.3906 24.4262 40.4836 24.4572C40.5766 24.4882 40.6593 24.5296 40.7213 24.5709C40.7833 24.6122 40.8349 24.6742 40.8763 24.7362C40.9176 24.7982 40.9279 24.8912 40.9279 24.9842C40.9279 25.0875 40.9073 25.1702 40.8659 25.2425C40.8246 25.3148 40.773 25.3768 40.7006 25.4285C40.6283 25.4802 40.5456 25.5112 40.4423 25.5421C40.3493 25.5628 40.2357 25.5835 40.122 25.5835C39.781 25.5835 39.4814 25.4698 39.2334 25.2632L39.3471 25.0875C39.3884 25.1288 39.4297 25.1702 39.4814 25.2012C39.5434 25.2425 39.595 25.2735 39.6674 25.2942C39.7294 25.3252 39.8017 25.3458 39.8843 25.3562C39.967 25.3665 40.0393 25.3768 40.122 25.3768C40.2977 25.3768 40.432 25.3458 40.5353 25.2838C40.6386 25.2218 40.68 25.1288 40.68 25.0049C40.68 24.9429 40.6696 24.8809 40.6386 24.8292C40.6076 24.7879 40.5663 24.7465 40.5146 24.7052C40.4526 24.6639 40.3906 24.6432 40.308 24.6225C40.2253 24.6019 40.122 24.5709 40.0187 24.5502C39.905 24.5192 39.8017 24.4986 39.7087 24.4676C39.626 24.4366 39.5537 24.4056 39.4917 24.3539C39.4297 24.3126 39.3884 24.2609 39.3574 24.1989C39.3264 24.1369 39.3161 24.0646 39.3161 23.9716C39.3161 23.8683 39.3367 23.7856 39.3781 23.7029C39.4194 23.6203 39.471 23.5583 39.5434 23.5066C39.6157 23.455 39.6984 23.4136 39.7914 23.3826C39.8844 23.3516 39.998 23.3413 40.1117 23.3413C40.2563 23.3413 40.3906 23.362 40.5043 23.4033C40.618 23.4446 40.7213 23.517 40.8143 23.5893L40.7006 23.7856Z" fill="#B5BFDC"/>
<path d="M41.6818 24.478C41.6818 24.602 41.7025 24.7156 41.7438 24.8293C41.7852 24.9429 41.8368 25.0359 41.9091 25.1289C41.9815 25.2116 42.0641 25.2839 42.1675 25.3356C42.2708 25.3872 42.3741 25.4079 42.4981 25.4079C42.6221 25.4079 42.7358 25.3769 42.8391 25.3253C42.9424 25.2736 43.0251 25.2013 43.0974 25.1186C43.1697 25.0359 43.2214 24.9326 43.2627 24.819C43.304 24.7053 43.3247 24.5916 43.3247 24.4883C43.3247 24.3643 43.304 24.2507 43.2627 24.137C43.2214 24.0233 43.1697 23.9304 43.0974 23.8477C43.0251 23.765 42.9424 23.6927 42.8391 23.641C42.7358 23.5894 42.6324 23.5687 42.5084 23.5687C42.3844 23.5687 42.2708 23.5997 42.1675 23.6514C42.0641 23.703 41.9815 23.7754 41.9091 23.858C41.8368 23.9407 41.7852 24.044 41.7542 24.1577C41.7025 24.2507 41.6818 24.3643 41.6818 24.478ZM42.4981 25.5939C42.3431 25.5939 42.2088 25.5629 42.0745 25.5009C41.9401 25.4389 41.8368 25.3562 41.7438 25.2426C41.6612 25.1393 41.5888 25.0153 41.5372 24.8913C41.4855 24.757 41.4648 24.6226 41.4648 24.478C41.4648 24.3333 41.4958 24.1887 41.5475 24.0543C41.5992 23.92 41.6715 23.796 41.7645 23.703C41.8575 23.5997 41.9711 23.517 42.0951 23.4551C42.2191 23.3931 42.3534 23.3621 42.5084 23.3621C42.6634 23.3621 42.7977 23.4034 42.9321 23.4551C43.0664 23.517 43.1697 23.61 43.2627 23.7134C43.3454 23.827 43.4177 23.9407 43.4694 24.0647C43.521 24.199 43.5417 24.3333 43.5417 24.4676C43.5417 24.6123 43.5107 24.757 43.459 24.8913C43.4074 25.0256 43.335 25.1496 43.242 25.2426C43.1491 25.3459 43.0354 25.4286 42.9114 25.4906C42.7874 25.5629 42.6531 25.5939 42.4981 25.5939Z" fill="#B5BFDC"/>
<path d="M44.4719 24.5709H45.1951C45.2571 24.5709 45.3191 24.5606 45.3708 24.5296C45.4225 24.4986 45.4638 24.4676 45.5051 24.4159C45.5465 24.3642 45.5671 24.3126 45.5878 24.2609C45.6085 24.1989 45.6188 24.1369 45.6188 24.0749C45.6188 24.0129 45.6085 23.9406 45.5775 23.8889C45.5568 23.8269 45.5155 23.7753 45.4845 23.734C45.4431 23.6926 45.4018 23.6513 45.3398 23.6203C45.2778 23.5893 45.2261 23.579 45.1642 23.579H44.4615L44.4719 24.5709ZM44.2549 25.5835V23.3723H45.1848C45.2778 23.3723 45.3708 23.393 45.4431 23.4343C45.5258 23.4756 45.5878 23.5273 45.6498 23.5893C45.7118 23.6513 45.7531 23.7236 45.7841 23.8166C45.8151 23.8993 45.8358 23.9819 45.8358 24.0749C45.8358 24.1576 45.8254 24.2299 45.7944 24.3126C45.7738 24.3849 45.7324 24.4469 45.6911 24.5089C45.6498 24.5709 45.5981 24.6226 45.5361 24.6639C45.4741 24.7052 45.4018 24.7259 45.3295 24.7465L45.8668 25.5938H45.6188L45.1022 24.7775H44.4512V25.5938L44.2549 25.5835Z" fill="#B5BFDC"/>
<path d="M46.3418 23.3723V23.5686H47.1271V25.5835H47.3441V23.5686H48.1293V23.3723H46.3418Z" fill="#B5BFDC"/>
<path d="M50.8781 24.5709H51.6014C51.6634 24.5709 51.7254 24.5606 51.7771 24.5296C51.8287 24.4986 51.87 24.4676 51.9114 24.4159C51.9527 24.3642 51.9734 24.3126 51.994 24.2609C52.0147 24.1989 52.025 24.1369 52.025 24.0749C52.025 24.0129 52.0147 23.9406 51.9837 23.8889C51.9527 23.8373 51.9217 23.7753 51.8907 23.734C51.8494 23.6926 51.808 23.6513 51.7461 23.6203C51.6841 23.5893 51.6324 23.579 51.5704 23.579H50.8678L50.8781 24.5709ZM50.6611 25.5835V23.3723H51.5911C51.6841 23.3723 51.7771 23.393 51.8494 23.4343C51.932 23.4756 51.994 23.5273 52.056 23.5893C52.118 23.6513 52.1594 23.7236 52.1904 23.8166C52.2214 23.8993 52.242 23.9819 52.242 24.0749C52.242 24.1576 52.2317 24.2299 52.2007 24.3126C52.1697 24.3952 52.1387 24.4469 52.0974 24.5089C52.056 24.5709 52.0044 24.6226 51.9424 24.6639C51.8804 24.7052 51.8081 24.7259 51.7357 24.7465L52.273 25.5938H52.025L51.5084 24.7775H50.8575V25.5938L50.6611 25.5835Z" fill="#B5BFDC"/>
<path d="M52.9961 23.3723V25.5835H54.484V25.3872H53.2131V24.5399H54.2877V24.3642H53.2131V23.5686H54.453V23.3723H52.9961Z" fill="#B5BFDC"/>
<path d="M56.437 23.7856C56.375 23.7133 56.2923 23.6513 56.189 23.61C56.0856 23.5686 55.972 23.548 55.8377 23.548C55.6413 23.548 55.507 23.5893 55.414 23.6616C55.3314 23.7339 55.2797 23.8373 55.2797 23.9613C55.2797 24.0233 55.29 24.0853 55.321 24.1163C55.3417 24.1576 55.383 24.1989 55.4347 24.2299C55.4864 24.2609 55.5483 24.2919 55.6207 24.3126C55.7033 24.3332 55.786 24.3539 55.8997 24.3746C56.0133 24.4056 56.127 24.4262 56.22 24.4572C56.313 24.4882 56.3956 24.5296 56.4576 24.5709C56.5196 24.6122 56.5713 24.6742 56.6126 24.7362C56.6539 24.7982 56.6643 24.8912 56.6643 24.9842C56.6643 25.0875 56.6436 25.1702 56.6023 25.2425C56.5609 25.3148 56.5093 25.3768 56.437 25.4285C56.3646 25.4802 56.282 25.5112 56.1786 25.5421C56.0856 25.5628 55.972 25.5835 55.8583 25.5835C55.5174 25.5835 55.2177 25.4698 54.9697 25.2632L55.0834 25.0875C55.1247 25.1288 55.166 25.1702 55.2177 25.2012C55.2797 25.2425 55.3314 25.2735 55.4037 25.2942C55.4657 25.3252 55.538 25.3458 55.6207 25.3562C55.7033 25.3665 55.7757 25.3768 55.8583 25.3768C56.034 25.3768 56.1683 25.3458 56.2716 25.2838C56.375 25.2218 56.4163 25.1288 56.4163 25.0049C56.4163 24.9429 56.406 24.8809 56.375 24.8292C56.344 24.7879 56.3026 24.7465 56.251 24.7052C56.189 24.6639 56.127 24.6432 56.0443 24.6225C55.9617 24.6019 55.8583 24.5709 55.755 24.5502C55.6413 24.5192 55.538 24.4986 55.445 24.4676C55.3624 24.4366 55.29 24.4056 55.228 24.3539C55.166 24.3126 55.1247 24.2609 55.0937 24.1989C55.0627 24.1369 55.0524 24.0646 55.0524 23.9716C55.0524 23.8683 55.0731 23.7856 55.1144 23.7029C55.1557 23.6203 55.2074 23.5583 55.2694 23.5066C55.3417 23.455 55.4244 23.4136 55.5174 23.3826C55.6103 23.3516 55.724 23.3413 55.8377 23.3413C55.9823 23.3413 56.1166 23.362 56.2303 23.4033C56.344 23.4446 56.4473 23.517 56.5403 23.5893L56.437 23.7856Z" fill="#B5BFDC"/>
<path d="M57.5627 23.3723H57.3457V25.5835H57.5627V23.3723Z" fill="#B5BFDC"/>
<path d="M60.0115 24.4676C60.0115 24.3332 59.9909 24.2093 59.9496 24.1059C59.9082 23.9923 59.8566 23.8993 59.7842 23.8269C59.7119 23.7443 59.6292 23.6823 59.5259 23.641C59.4226 23.5996 59.2986 23.579 59.1746 23.579H58.6476V25.3975H59.1746C59.3089 25.3975 59.4329 25.3768 59.5363 25.3252C59.6396 25.2838 59.7326 25.2115 59.7946 25.1289C59.8669 25.0462 59.9186 24.9532 59.9496 24.8395C60.0012 24.7259 60.0115 24.6019 60.0115 24.4676ZM58.4307 25.5835V23.3723H59.1746C59.3503 23.3723 59.5052 23.4033 59.6292 23.455C59.7636 23.517 59.8669 23.5893 59.9599 23.6926C60.0425 23.796 60.1149 23.9096 60.1562 24.0439C60.1975 24.1783 60.2182 24.3229 60.2182 24.4676C60.2182 24.6329 60.1975 24.7879 60.1459 24.9222C60.0942 25.0565 60.0219 25.1805 59.9392 25.2735C59.8462 25.3665 59.7326 25.4388 59.6086 25.5008C59.4743 25.5525 59.3296 25.5835 59.1746 25.5835H58.4307Z" fill="#B5BFDC"/>
<path d="M60.9629 23.3723V25.5835H62.4404V25.3872H61.1799V24.5399H62.2648V24.3642H61.1799V23.5686H62.4198V23.3723H60.9629Z" fill="#B5BFDC"/>
<path d="M63.1631 23.3723V25.5835H63.3801V23.7753L64.8163 25.5835H65.0126V23.3826H64.7956V25.2115L63.3387 23.3723H63.1631Z" fill="#B5BFDC"/>
<path d="M65.7256 24.4675C65.7256 24.3332 65.7463 24.2092 65.7979 24.0645C65.8392 23.9302 65.9116 23.8165 66.0046 23.7132C66.0872 23.6099 66.2009 23.5272 66.3352 23.4549C66.4695 23.3929 66.6142 23.3516 66.7795 23.3516C66.9758 23.3516 67.1412 23.3929 67.2858 23.4859C67.4201 23.5685 67.5235 23.6925 67.5958 23.8372L67.4201 23.9509C67.3788 23.8785 67.3375 23.8165 67.2858 23.7649C67.2341 23.7132 67.1722 23.6822 67.1308 23.6409C67.0688 23.6099 67.0172 23.5892 66.9448 23.5789C66.8828 23.5685 66.8208 23.5582 66.7588 23.5582C66.6245 23.5582 66.5109 23.5892 66.4075 23.6409C66.3042 23.6925 66.2216 23.7649 66.1492 23.8475C66.0769 23.9302 66.0252 24.0335 65.9942 24.1368C65.9632 24.2402 65.9426 24.3538 65.9426 24.4675C65.9426 24.5915 65.9632 24.7051 66.0046 24.8188C66.0459 24.9324 66.1079 25.0254 66.1802 25.1184C66.2526 25.2011 66.3352 25.2734 66.4385 25.3251C66.5419 25.3767 66.6452 25.4077 66.7692 25.4077C66.8312 25.4077 66.8932 25.3974 66.9552 25.3871C67.0172 25.3767 67.0895 25.3458 67.1412 25.3148C67.2031 25.2734 67.2548 25.2321 67.3065 25.1804C67.3581 25.1288 67.3995 25.0668 67.4408 24.9944L67.6268 25.0874C67.5855 25.1701 67.5441 25.2424 67.4718 25.3044C67.4098 25.3664 67.3375 25.4181 67.2548 25.4594C67.1722 25.5007 67.0998 25.5421 67.0068 25.5627C66.9242 25.5834 66.8312 25.6041 66.7485 25.6041C66.5935 25.6041 66.4592 25.5731 66.3352 25.5007C66.2112 25.4387 66.0976 25.3458 66.0046 25.2424C65.9116 25.1391 65.8496 25.0151 65.7979 24.8808C65.7566 24.7361 65.7256 24.6018 65.7256 24.4675Z" fill="#B5BFDC"/>
<path d="M68.3193 23.3723V25.5835H69.7969V25.3872H68.5363V24.5399H69.6109V24.3642H68.5363V23.5686H69.7659V23.3723H68.3193Z" fill="#B5BFDC"/>
<path d="M71.77 23.7856C71.708 23.7133 71.6253 23.6513 71.522 23.61C71.4187 23.5686 71.2947 23.548 71.1707 23.548C70.9743 23.548 70.84 23.5893 70.747 23.6616C70.6644 23.7339 70.6127 23.8373 70.6127 23.9613C70.6127 24.0233 70.623 24.0853 70.654 24.1163C70.6747 24.1576 70.716 24.1989 70.7677 24.2299C70.8194 24.2609 70.8814 24.2919 70.9537 24.3126C71.0363 24.3332 71.119 24.3539 71.2327 24.3746C71.3463 24.4056 71.46 24.4262 71.553 24.4572C71.646 24.4882 71.7286 24.5296 71.7906 24.5709C71.8526 24.6122 71.9043 24.6742 71.9456 24.7362C71.9869 24.7982 71.9973 24.8912 71.9973 24.9842C71.9973 25.0875 71.9766 25.1702 71.9353 25.2425C71.894 25.3148 71.8423 25.3768 71.77 25.4285C71.6976 25.4802 71.615 25.5112 71.5116 25.5421C71.4186 25.5628 71.305 25.5835 71.1913 25.5835C70.8504 25.5835 70.5507 25.4698 70.3027 25.2632L70.4164 25.0875C70.4577 25.1288 70.499 25.1702 70.5507 25.2012C70.6127 25.2425 70.6644 25.2735 70.7367 25.2942C70.7987 25.3252 70.871 25.3458 70.9537 25.3562C71.026 25.3665 71.1087 25.3768 71.1913 25.3768C71.367 25.3768 71.5013 25.3458 71.6046 25.2838C71.708 25.2218 71.7493 25.1288 71.7493 25.0049C71.7493 24.9429 71.739 24.8809 71.708 24.8292C71.677 24.7879 71.6356 24.7465 71.584 24.7052C71.522 24.6639 71.46 24.6432 71.3773 24.6225C71.2947 24.6019 71.1913 24.5709 71.088 24.5502C70.9743 24.5192 70.871 24.4986 70.778 24.4676C70.6954 24.4366 70.623 24.4056 70.561 24.3539C70.4991 24.3126 70.4577 24.2609 70.4267 24.1989C70.3957 24.1369 70.3854 24.0646 70.3854 23.9716C70.3854 23.8683 70.4061 23.7856 70.4474 23.7029C70.4887 23.6203 70.5404 23.5583 70.6127 23.5066C70.685 23.455 70.7677 23.4136 70.8607 23.3826C70.9537 23.3516 71.0673 23.3413 71.181 23.3413C71.3257 23.3413 71.46 23.362 71.5736 23.4033C71.6873 23.4446 71.7906 23.517 71.8836 23.5893L71.77 23.7856Z" fill="#B5BFDC"/>
<path d="M74.0024 23.8269C74.0024 23.8475 74.0024 23.8785 74.0128 23.8992C74.0231 23.9199 74.0334 23.9509 74.0541 23.9819C74.0748 24.0128 74.1057 24.0542 74.1367 24.0955C74.1781 24.1368 74.2194 24.1885 74.2711 24.2505C74.3847 24.1678 74.4881 24.0955 74.5604 24.0232C74.6327 23.9509 74.674 23.8682 74.674 23.7855C74.674 23.7029 74.643 23.6409 74.5914 23.5892C74.5294 23.5375 74.4571 23.5066 74.3537 23.5066C74.3021 23.5066 74.2504 23.5169 74.2091 23.5272C74.1677 23.5375 74.1264 23.5685 74.0954 23.5892C74.0644 23.6202 74.0334 23.6512 74.0231 23.6925C74.0128 23.7442 74.0024 23.7752 74.0024 23.8269ZM74.3641 25.4387C74.4777 25.4387 74.5707 25.4181 74.6534 25.3767C74.736 25.3354 74.8187 25.2631 74.891 25.1908L74.2194 24.4881C74.1057 24.5708 74.0128 24.6431 73.9404 24.7258C73.8681 24.8085 73.8268 24.9118 73.8268 25.0151C73.8268 25.0771 73.8371 25.1494 73.8681 25.2011C73.8991 25.2528 73.9404 25.2941 73.9818 25.3354C74.0334 25.3767 74.0954 25.3974 74.1471 25.4181C74.2401 25.4284 74.3021 25.4387 74.3641 25.4387ZM75.2733 25.5834L75.015 25.3148C74.9324 25.4077 74.829 25.4801 74.7154 25.5317C74.6017 25.5834 74.4777 25.6144 74.3434 25.6144C74.2504 25.6144 74.1574 25.6041 74.0644 25.5731C73.9818 25.5421 73.9094 25.5007 73.8371 25.4491C73.7751 25.3974 73.7234 25.3354 73.6821 25.2631C73.6408 25.1908 73.6201 25.1081 73.6201 25.0151C73.6201 24.9428 73.6305 24.8705 73.6615 24.8085C73.6821 24.7465 73.7234 24.6948 73.7648 24.6328C73.8061 24.5811 73.8578 24.5295 73.9198 24.4881C73.9818 24.4468 74.0334 24.4055 74.0954 24.3538C74.0334 24.2918 73.9921 24.2402 73.9611 24.1988C73.9198 24.1472 73.8888 24.1058 73.8681 24.0645C73.8474 24.0232 73.8268 23.9819 73.8164 23.9509C73.8061 23.9095 73.8061 23.8785 73.8061 23.8372C73.8061 23.7752 73.8164 23.7029 73.8474 23.6512C73.8784 23.5892 73.9094 23.5375 73.9611 23.4962C74.0128 23.4549 74.0748 23.4136 74.1367 23.3929C74.1987 23.3619 74.2711 23.3516 74.3537 23.3516C74.4261 23.3516 74.4881 23.3619 74.5604 23.3826C74.6224 23.4032 74.674 23.4342 74.7154 23.4652C74.7567 23.5066 74.798 23.5479 74.829 23.5995C74.86 23.6512 74.8704 23.7132 74.8704 23.7752C74.8704 23.8372 74.86 23.8992 74.829 23.9509C74.798 24.0025 74.767 24.0542 74.7257 24.1058C74.6844 24.1575 74.6327 24.1988 74.5707 24.2402C74.5087 24.2815 74.4467 24.3228 74.3847 24.3745L75.0047 25.0254C75.046 24.9428 75.077 24.8601 75.0977 24.7671C75.1183 24.6741 75.139 24.5811 75.139 24.4778H75.325C75.325 24.6121 75.3043 24.7258 75.2733 24.8395C75.2423 24.9531 75.1907 25.0564 75.139 25.1494L75.5523 25.5731L75.2733 25.5834Z" fill="#B5BFDC"/>
<path d="M78.7034 24.9739C78.7034 24.9223 78.6931 24.8603 78.6724 24.819C78.6517 24.7673 78.6311 24.726 78.5897 24.6846C78.5484 24.6433 78.5174 24.6123 78.4657 24.5916C78.4244 24.571 78.3728 24.5503 78.3108 24.5503H77.4635V25.3872H78.2798C78.3418 25.3872 78.3934 25.3769 78.4347 25.3459C78.4864 25.3253 78.5277 25.2943 78.5691 25.2529C78.6104 25.2116 78.6311 25.1703 78.6517 25.1186C78.6931 25.0773 78.7034 25.0256 78.7034 24.9739ZM77.4738 23.5584V24.3747H78.2281C78.2798 24.3747 78.3314 24.3643 78.3831 24.3333C78.4244 24.3127 78.4657 24.2817 78.4967 24.2507C78.5381 24.2093 78.5587 24.168 78.5794 24.1163C78.6001 24.0647 78.6104 24.013 78.6104 23.9613C78.6104 23.8994 78.6001 23.8477 78.5794 23.8064C78.5691 23.7547 78.5381 23.7134 78.5071 23.672C78.4761 23.6307 78.4347 23.61 78.3934 23.5894C78.3521 23.5687 78.3004 23.5584 78.2488 23.5584H77.4738ZM78.9204 25.0049C78.9204 25.0876 78.91 25.1599 78.8687 25.2323C78.8274 25.3046 78.7861 25.3666 78.7344 25.4182C78.6724 25.4699 78.6104 25.5009 78.5381 25.5319C78.4657 25.5629 78.3831 25.5732 78.3004 25.5732H77.2568V23.3621H78.3211C78.3934 23.3621 78.4657 23.3724 78.5277 23.4137C78.5897 23.4551 78.6414 23.4861 78.6827 23.548C78.7241 23.5997 78.7654 23.6617 78.7861 23.734C78.8067 23.796 78.8274 23.8684 78.8274 23.9407C78.8274 24.0543 78.7964 24.1473 78.7447 24.2507C78.6827 24.3437 78.6104 24.4057 78.5071 24.4573C78.6311 24.4986 78.7344 24.571 78.8067 24.664C78.8791 24.757 78.9204 24.8809 78.9204 25.0049Z" fill="#B5BFDC"/>
<path d="M79.6338 23.3723V25.5835H81.1217V25.3872H79.8508V24.5399H80.9357V24.3642H79.8508V23.5686H81.101V23.3723H79.6338Z" fill="#B5BFDC"/>
<path d="M82.619 23.6306L83.0633 24.7155H82.1644L82.619 23.6306ZM82.526 23.3723L81.6064 25.5835H81.8441L82.1231 24.8912H83.115L83.394 25.5835H83.6316L82.712 23.3723H82.526Z" fill="#B5BFDC"/>
<path d="M84.0244 24.4675C84.0244 24.3332 84.0451 24.2092 84.0967 24.0645C84.1381 23.9302 84.2104 23.8165 84.3034 23.7132C84.3861 23.6099 84.4997 23.5272 84.634 23.4549C84.7684 23.3929 84.913 23.3516 85.0783 23.3516C85.2747 23.3516 85.44 23.3929 85.5846 23.4859C85.719 23.5685 85.8223 23.6925 85.8946 23.8372L85.719 23.9509C85.6776 23.8785 85.6363 23.8165 85.5846 23.7649C85.533 23.7132 85.471 23.6822 85.4296 23.6409C85.3676 23.6099 85.316 23.5892 85.2437 23.5789C85.1817 23.5685 85.1197 23.5582 85.0577 23.5582C84.9233 23.5582 84.8097 23.5892 84.7064 23.6409C84.603 23.6925 84.5204 23.7649 84.448 23.8475C84.3757 23.9302 84.3241 24.0335 84.2931 24.1368C84.2621 24.2402 84.2414 24.3538 84.2414 24.4675C84.2414 24.5915 84.2621 24.7051 84.3034 24.8188C84.3447 24.9324 84.4067 25.0254 84.479 25.1184C84.5514 25.2011 84.634 25.2734 84.7374 25.3251C84.8407 25.3767 84.944 25.4077 85.068 25.4077C85.13 25.4077 85.192 25.3974 85.254 25.3871C85.316 25.3767 85.3883 25.3458 85.44 25.3148C85.502 25.2734 85.5536 25.2321 85.6053 25.1804C85.657 25.1288 85.6983 25.0668 85.7396 24.9944L85.9256 25.0874C85.8843 25.1701 85.8429 25.2424 85.7706 25.3044C85.7086 25.3664 85.6363 25.4181 85.5536 25.4594C85.471 25.5007 85.3986 25.5421 85.3057 25.5627C85.223 25.5834 85.13 25.6041 85.0473 25.6041C84.8923 25.6041 84.758 25.5731 84.634 25.5007C84.51 25.4387 84.3964 25.3458 84.3034 25.2424C84.2104 25.1391 84.1484 25.0151 84.0967 24.8808C84.0554 24.7361 84.0244 24.6018 84.0244 24.4675Z" fill="#B5BFDC"/>
<path d="M88.1371 23.3723V24.3539H86.8352V23.3723H86.6182V25.5835H86.8352V24.5502H88.1371V25.5835H88.354V23.3723H88.1371Z" fill="#B5BFDC"/>
<path d="M90.1826 24.4675C90.1826 24.3332 90.2033 24.2092 90.2549 24.0645C90.2963 23.9302 90.3686 23.8165 90.4616 23.7132C90.5443 23.6099 90.6579 23.5272 90.7922 23.4549C90.9266 23.3826 91.0712 23.3516 91.2365 23.3516C91.4329 23.3516 91.5982 23.3929 91.7428 23.4859C91.8772 23.5685 91.9805 23.6925 92.0528 23.8372L91.8772 23.9509C91.8358 23.8785 91.7945 23.8165 91.7428 23.7649C91.6912 23.7132 91.6292 23.6822 91.5775 23.6409C91.5155 23.6099 91.4639 23.5892 91.3915 23.5789C91.3295 23.5685 91.2675 23.5582 91.2055 23.5582C91.0712 23.5582 90.9576 23.5892 90.8542 23.6409C90.7509 23.6925 90.6682 23.7649 90.5959 23.8475C90.5236 23.9302 90.4719 24.0335 90.4409 24.1368C90.4099 24.2402 90.3893 24.3538 90.3893 24.4675C90.3893 24.5915 90.4099 24.7051 90.4513 24.8188C90.4926 24.9324 90.5546 25.0254 90.6269 25.1184C90.6992 25.2011 90.7819 25.2734 90.8852 25.3251C90.9886 25.3767 91.0919 25.4077 91.2159 25.4077C91.2779 25.4077 91.3399 25.3974 91.4019 25.3871C91.4639 25.3767 91.5362 25.3458 91.5879 25.3148C91.6498 25.2734 91.7015 25.2321 91.7532 25.1804C91.8048 25.1288 91.8462 25.0668 91.8875 24.9944L92.0735 25.0874C92.0321 25.1701 91.9908 25.2424 91.9185 25.3044C91.8565 25.3664 91.7842 25.4181 91.7015 25.4594C91.6188 25.5007 91.5465 25.5421 91.4535 25.5627C91.3709 25.5834 91.2779 25.6041 91.1952 25.6041C91.0402 25.6041 90.9059 25.5731 90.7819 25.5007C90.6579 25.4387 90.5443 25.3458 90.4513 25.2424C90.3583 25.1391 90.2963 25.0151 90.2446 24.8808C90.2033 24.7361 90.1826 24.6018 90.1826 24.4675Z" fill="#B5BFDC"/>
<path d="M92.7656 23.3723V25.5835H94.2535V25.3872H92.9826V23.3723H92.7656Z" fill="#B5BFDC"/>
<path d="M95.6485 25.3975C95.7828 25.3975 95.9068 25.3665 95.9998 25.3148C96.0928 25.2632 96.1652 25.1908 96.2168 25.1082C96.2788 25.0255 96.3098 24.9222 96.3305 24.8189C96.3511 24.7052 96.3718 24.6019 96.3718 24.4882V23.3723H96.5888V24.4882C96.5888 24.6432 96.5785 24.7775 96.5371 24.9119C96.5061 25.0462 96.4545 25.1702 96.3821 25.2632C96.3098 25.3665 96.2168 25.4492 96.0928 25.5008C95.9792 25.5628 95.8345 25.5835 95.6692 25.5835C95.4935 25.5835 95.3489 25.5525 95.2249 25.4905C95.1112 25.4285 95.0079 25.3458 94.9356 25.2425C94.8632 25.1392 94.8116 25.0255 94.7806 24.8912C94.7496 24.7569 94.7393 24.6226 94.7393 24.4882V23.3723H94.9562V24.4882C94.9562 24.6019 94.9666 24.7156 94.9976 24.8292C95.0182 24.9429 95.0596 25.0359 95.1112 25.1185C95.1732 25.2012 95.2455 25.2735 95.3282 25.3252C95.4005 25.3665 95.5039 25.3975 95.6485 25.3975Z" fill="#B5BFDC"/>
<path d="M98.8518 24.9739C98.8518 24.9223 98.8415 24.8603 98.8208 24.819C98.8002 24.7673 98.7795 24.726 98.7382 24.6846C98.6968 24.6433 98.6658 24.6123 98.6142 24.5916C98.5729 24.571 98.5212 24.5503 98.4592 24.5503H97.6119V25.3872H98.4282C98.4902 25.3872 98.5419 25.3769 98.5832 25.3459C98.6348 25.3253 98.6762 25.2943 98.7175 25.2529C98.7588 25.2116 98.7795 25.1703 98.8002 25.1186C98.8312 25.0773 98.8518 25.0256 98.8518 24.9739ZM97.6223 23.5584V24.3747H98.3869C98.4385 24.3747 98.4902 24.3643 98.5419 24.3333C98.5832 24.3127 98.6245 24.2817 98.6555 24.2507C98.6968 24.2093 98.7175 24.168 98.7382 24.1163C98.7588 24.0647 98.7692 24.013 98.7692 23.9613C98.7692 23.8994 98.7588 23.8477 98.7382 23.8064C98.7278 23.7547 98.6968 23.7134 98.6658 23.672C98.6349 23.6307 98.5935 23.61 98.5522 23.5894C98.5109 23.5687 98.4592 23.5584 98.4075 23.5584H97.6223ZM99.0688 25.0049C99.0688 25.0876 99.0585 25.1599 99.0172 25.2323C98.9758 25.3046 98.9345 25.3666 98.8828 25.4182C98.8208 25.4699 98.7588 25.5009 98.6865 25.5319C98.6142 25.5629 98.5315 25.5732 98.4489 25.5732H97.4053V23.3621H98.4695C98.5419 23.3621 98.6142 23.3724 98.6762 23.4137C98.7382 23.4551 98.7898 23.4861 98.8312 23.548C98.8725 23.5997 98.9138 23.6617 98.9345 23.734C98.9552 23.796 98.9758 23.8684 98.9758 23.9407C98.9758 24.0543 98.9448 24.1473 98.8932 24.2507C98.8312 24.3437 98.7588 24.4057 98.6555 24.4573C98.7795 24.4986 98.8828 24.571 98.9552 24.664C99.0275 24.757 99.0688 24.8809 99.0688 25.0049Z" fill="#B5BFDC"/>
</g>
</g>
</g>
<defs>
<clipPath id="clip0_2543_12337">
<rect width="104" height="32" fill="white"/>
</clipPath>
<clipPath id="clip1_2543_12337">
<rect width="104" height="32" fill="white"/>
</clipPath>
</defs>
</svg>
