<svg width="113" height="32" viewBox="0 0 113 32" fill="none" xmlns="http://www.w3.org/2000/svg">
<mask id="mask0_2543_12483" style="mask-type:luminance" maskUnits="userSpaceOnUse" x="0" y="10" width="112" height="17">
<path fill-rule="evenodd" clip-rule="evenodd" d="M0 10H112V27H0V10Z" fill="white"/>
</mask>
<g mask="url(#mask0_2543_12483)">
<path fill-rule="evenodd" clip-rule="evenodd" d="M0 10.2218H2.73594L5.69355 19.1444C6.01426 20.0817 6.33477 21.5354 6.33477 21.5354C6.33477 21.5354 6.7543 20.1062 7.14746 19.1444L10.9932 10.0493H11.3137L15.184 19.1444C15.5779 20.0817 15.9721 21.5354 15.9721 21.5354C15.9721 21.5354 16.3172 20.0817 16.6377 19.1444L19.5953 10.2218H22.1344L16.3426 27.1556H16.0221L11.8559 17.1731C11.5107 16.3595 11.1666 15.1272 11.1666 15.1272C11.1666 15.1272 10.7715 16.3595 10.4266 17.1731L6.16211 27.1556H5.8416L0 10.2218Z" fill="#B5BFDC"/>
<path fill-rule="evenodd" clip-rule="evenodd" d="M53.0215 10.2218H55.7576L58.715 19.1444C59.0357 20.0817 59.3563 21.5354 59.3563 21.5354C59.3563 21.5354 59.7758 20.1062 60.1689 19.1444L64.0146 10.0493H64.3352L68.2055 19.1444C68.5996 20.0817 68.9945 21.5354 68.9945 21.5354C68.9945 21.5354 69.3387 20.0817 69.6592 19.1444L72.6168 10.2218H75.1559L69.3641 27.1556H69.0436L64.8773 17.1731C64.5322 16.3595 64.1881 15.1272 64.1881 15.1272C64.1881 15.1272 63.7932 16.3595 63.448 17.1731L59.1838 27.1556H58.8631L53.0215 10.2218Z" fill="#B5BFDC"/>
<path fill-rule="evenodd" clip-rule="evenodd" d="M83.574 10.0493H83.8445L91.8555 19.4161L99.7932 10.0493H100.064V26.9831H97.5736V18.2819C97.5736 17.3458 97.6727 15.8665 97.6727 15.8665C97.6727 15.8665 96.86 17.1231 96.1689 17.8878L91.9545 22.9659H91.6586L87.4432 17.8878C86.8031 17.1231 85.9648 15.8665 85.9648 15.8665C85.9648 15.8665 86.0639 17.3458 86.0639 18.2819V26.9831H83.574V10.0493Z" fill="#B5BFDC"/>
<path fill-rule="evenodd" clip-rule="evenodd" d="M109.911 26.983H112.5V10.2217H109.911V26.983Z" fill="#B5BFDC"/>
<path fill-rule="evenodd" clip-rule="evenodd" d="M37.5836 10C32.833 10 28.9814 13.8516 28.9814 18.6021C28.9814 23.3537 32.833 27.2053 37.5836 27.2053C42.3342 27.2053 46.1867 23.3537 46.1867 18.6021C46.1867 13.8516 42.3342 10 37.5836 10ZM37.6492 25.0123C34.1055 25.0123 31.2332 22.1391 31.2332 18.5953C31.2332 15.0523 34.1055 12.1801 37.6492 12.1801C41.192 12.1801 44.0654 15.0523 44.0654 18.5953C44.0654 22.1391 41.192 25.0123 37.6492 25.0123Z" fill="#B5BFDC"/>
</g>
</svg>
