<svg xmlns="http://www.w3.org/2000/svg" width="24" height="24" fill="#FFF" class="social-media__icon" viewBox="0 0 48 48"><path d="M33.8 33.8c-2.45 1.96-5.88 3.43-9.31 3.43-7.84 0-13.22-5.88-13.22-13.71 0-7.84 5.39-13.22 13.22-13.22 3.43 0 6.86.98 9.31 3.43l1.47 1.47 7.84-7.35-1.96-1.47C36.74 2.46 30.86.01 24.5.01c-13.71 0-24 10.29-24 24s10.29 24 24 24c6.37 0 12.24-2.45 16.65-6.37l1.96-1.47-7.84-7.84-1.47 1.47z"/><path d="M24 31.84c4.33 0 7.84-3.51 7.84-7.84s-3.51-7.84-7.84-7.84-7.84 3.51-7.84 7.84 3.51 7.84 7.84 7.84z"/></svg>