<svg width="71" height="21" viewBox="0 0 71 21" fill="none" xmlns="http://www.w3.org/2000/svg">
<path d="M18.5986 0.5H21.8381V20.5H18.5986V0.5Z" fill="white"/>
<path d="M33.1057 14.1621C33.1057 17.2607 30.5704 17.5424 29.7254 17.5424C27.7535 17.5424 27.4719 15.7114 27.4719 14.7255V6.979H24.2324V14.5846C24.2324 16.4156 24.7958 18.1058 25.9226 19.0917C26.9085 20.0776 28.1761 20.5001 29.7254 20.5001C30.8521 20.5001 32.2606 20.2184 33.1057 19.3734V20.5001H36.3451V6.979H33.1057V14.1621Z" fill="white"/>
<path d="M42.6831 2.04932H39.4437V6.97889H37.0493V10.0775H39.4437V20.5H42.6831V10.0775H45.0775V6.97889H42.6831V2.04932Z" fill="white"/>
<path d="M55.2183 16.4156C54.5141 16.979 53.5282 17.4015 52.5423 17.4015C50.2888 17.4015 48.7395 15.7113 48.7395 13.4578C48.7395 11.2043 50.2888 9.65501 52.5423 9.65501C53.5282 9.65501 54.5141 9.9367 55.2183 10.6409L55.6409 11.0635L57.8944 8.95078L57.331 8.52825C56.0634 7.40149 54.3733 6.69727 52.5423 6.69727C48.5986 6.69727 45.6409 9.65501 45.6409 13.5987C45.6409 17.5423 48.5986 20.5001 52.5423 20.5001C54.3733 20.5001 56.0634 19.7959 57.331 18.6691L57.8944 18.2466L55.6409 15.993L55.2183 16.4156Z" fill="white"/>
<path d="M69.303 8.10564C68.3171 7.11972 67.3312 6.69719 65.7819 6.69719C64.6551 6.69719 63.5284 6.97887 62.6833 7.82394V0.5H59.4438V20.5H62.6833V13.0352C62.6833 9.93662 64.796 9.65493 65.641 9.65493C67.6129 9.65493 67.472 11.4859 67.472 12.4718V20.3592H70.7115V12.6127C70.7115 10.7817 70.2889 9.09155 69.303 8.10564Z" fill="white"/>
<path d="M52.4015 15.8523C53.6461 15.8523 54.655 14.8433 54.655 13.5987C54.655 12.3542 53.6461 11.3452 52.4015 11.3452C51.1569 11.3452 50.1479 12.3542 50.1479 13.5987C50.1479 14.8433 51.1569 15.8523 52.4015 15.8523Z" fill="#FF3333"/>
<path d="M14.0916 15.5703C12.9649 16.6971 11.2747 17.4013 9.44375 17.4013C5.92262 17.4013 3.38741 14.5844 3.38741 10.7816C3.38741 6.97875 5.92262 4.16185 9.58459 4.16185C11.2747 4.16185 12.9649 4.86608 14.2325 6.13368L14.655 6.55622L16.7677 4.44354L16.3452 4.02101C14.5142 2.19002 12.1198 1.2041 9.58459 1.2041C4.23248 1.06326 0.288818 5.28861 0.288818 10.7816C0.288818 16.2745 4.23248 20.4999 9.44375 20.4999C11.979 20.4999 14.5142 19.514 16.2043 17.683L16.6268 17.2604L14.5142 15.1478L14.0916 15.5703Z" fill="white"/>
</svg>
