<svg xmlns="http://www.w3.org/2000/svg" width="24" height="24" fill="#fff" class="social-media__icon" viewBox="0 0 48 48"><path stroke="#fff" stroke-width="4" d="M46 23.98c.01 2.89-.57 5.76-1.67 8.43-1.11 2.67-2.74 5.1-4.8 7.14-2.03 2.02-4.45 3.64-7.11 4.73-2.66 1.11-5.51 1.67-8.38 1.66-12.14 0-21.97-9.83-21.97-21.96-.01-5.64 2.15-11.06 6.04-15.14 2.05-2.16 4.52-3.88 7.26-5.05C18.1 2.61 21.06 2 24.04 2.01c2.87-.01 5.72.56 8.38 1.66 2.66 1.09 5.08 2.71 7.11 4.74M46 23.98c.01-2.9-.57-5.76-1.67-8.43-1.11-2.68-2.74-5.1-4.8-7.14M46 23.98c-3.2 0-12.04-1.21-19.96 2.26-8.6 3.78-14.82 9.64-17.53 13.27M46 23.98c0 2.7-.48 5.29-1.38 7.68M39.53 8.41c-1.93-1.92-4.2-3.48-6.71-4.57m-17.03-.23c3.44 3.17 10.94 11.25 13.74 19.27 2.79 8.02 3.82 17.88 4.46 20.68M2.24 21.23c4.15.26 15.13.48 22.17-2.53 7.02-2.99 13.07-8.52 15.14-10.27M3.72 32.34c1.94 4.68 5.42 8.57 9.88 10.98"/></svg>