<svg xmlns="http://www.w3.org/2000/svg" width="24" height="24" fill="none" class="social-media__icon" viewBox="0 0 48 48"><path fill="#fff" d="M24.1 12C17.4 12 12 17.4 12 24.1s5.4 12.1 12.1 12.1 12.1-5.4 12.1-12.1S30.8 12 24.1 12Zm0 19.9c-4.3 0-7.9-3.5-7.9-7.8s3.5-7.9 7.9-7.9 7.8 3.5 7.8 7.9-3.5 7.8-7.8 7.8Zm15.3-20.4c0 1.6-1.2 2.8-2.8 2.8-1.5 0-2.8-1.2-2.8-2.8s1.3-2.8 2.8-2.8 2.8 1.3 2.8 2.8Zm8.1 2.8c-.2-3.7-1.1-7-3.8-9.8C40.9 1.8 37.5.9 33.8.7 29.9.4 18.3.4 14.3.7c-3.7.2-7 1.1-9.8 3.8S.9 10.6.7 14.3c-.3 4-.3 15.6 0 19.5.2 3.7 1.1 7.1 3.8 9.9s6.1 3.6 9.8 3.8c4 .1 15.6.1 19.5 0 3.7-.2 7.1-1.1 9.9-3.8 2.7-2.8 3.6-6.2 3.8-9.9.2-3.9.2-15.5 0-19.5ZM42.4 38c-.7 2-2.4 3.6-4.4 4.4-3.2 1.3-10.4.9-13.9.9s-10.8.4-13.9-.9c-2-.8-3.6-2.4-4.5-4.4-1.2-3.2-.9-10.6-.9-13.9s-.3-10.8.9-13.9c.9-2 2.5-3.6 4.5-4.5 3.1-1.2 10.5-.9 13.9-.9s10.7-.3 13.9.9c2 .8 3.6 2.5 4.4 4.5 1.3 3.1.9 10.4.9 13.9s.4 10.7-.9 13.9Z"/></svg>