<svg xmlns="http://www.w3.org/2000/svg" width="20" height="20" fill="none"><path fill="#fff" d="M10.4549 2.09625c.3993.17999.6562.57457.6562 1.01068V16.3981c0 .4361-.2569.8307-.6562 1.0107-.3993.1799-.86809.1073-1.19448-.1835l-4.68403-4.15H2.22222C.99652 13.0753 0 12.0819 0 10.8601V8.64491c0-1.22182.99653-2.21519 2.22222-2.21519h2.35417L9.26042 2.2797c.32639-.29075.79518-.35997 1.19448-.18345Zm4.302 4.57575 1.9098 1.90368L18.5764 6.672c.3264-.32535.8542-.32535 1.1771 0 .3229.32536.3264.85147 0 1.17336l-1.9097 1.90368 1.9097 1.90366c.3264.3254.3264.8515 0 1.1734-.3264.3219-.8542.3253-1.1771 0l-1.9097-1.9037-1.9098 1.9037c-.3263.3253-.8541.3253-1.177 0-.323-.3254-.3264-.8515 0-1.1734l1.9097-1.90366-1.9097-1.90368c-.3264-.32535-.3264-.85146 0-1.17336.3263-.32189.8541-.32535 1.177 0Z"/></svg>