<svg xmlns="http://www.w3.org/2000/svg" width="24" height="24" fill="none" class="social-media__icon" viewBox="0 0 48 48"><path fill="#fff" d="M48 8.97c-1.77.81-3.67 1.33-5.64 1.59 2.01-1.22 3.57-3.15 4.31-5.47-1.91 1.15-4.02 1.95-6.24 2.41-1.81-1.97-4.36-3.12-7.25-3.12-5.39 0-9.8 4.41-9.8 9.85 0 .78.09 1.53.25 2.25-8.17-.42-15.44-4.34-20.28-10.28-.85 1.44-1.33 3.14-1.33 4.93 0 3.42 1.72 6.45 4.38 8.17-1.63 0-3.14-.46-4.47-1.15v.07c0 4.77 3.39 8.76 7.89 9.66-1.44.39-2.96.45-4.43.16.63 1.96 1.85 3.67 3.49 4.89 1.65 1.23 3.64 1.91 5.69 1.95-3.48 2.75-7.79 4.24-12.23 4.22-.78 0-1.56-.05-2.34-.14 4.36 2.8 9.54 4.43 15.1 4.43 18.08 0 28.01-15.01 28.01-28.02 0-.43 0-.85-.02-1.28 1.93-1.38 3.58-3.12 4.91-5.12z"/></svg>