<svg xmlns="http://www.w3.org/2000/svg" width="20" height="20" fill="none"><path fill="#fff" d="M16.675 3.17033C18.7031 4.82033 20 7.33596 20 10.1547c0 2.8188-1.2969 5.3375-3.325 6.9844-.3219.2625-.7938.2125-1.0563-.1094-.2625-.3219-.2125-.7937.1094-1.0562 1.6938-1.375 2.7719-3.4688 2.7719-5.8188 0-2.34999-1.0781-4.44374-2.7719-5.82187-.3219-.2625-.3687-.73437-.1094-1.05625.2594-.32187.7344-.36875 1.0563-.10937v.00312Zm-1.8906 2.32813C16.1344 6.59846 17 8.27658 17 10.1547c0 1.8781-.8656 3.5563-2.2156 4.6563-.3219.2625-.7938.2125-1.0563-.1094-.2625-.3219-.2125-.7938.1094-1.0563 1.0156-.825 1.6625-2.0812 1.6625-3.4906 0-1.40937-.6469-2.66562-1.6625-3.49374-.3219-.2625-.3687-.73438-.1094-1.05625.2594-.32188.7344-.36875 1.0563-.10938v.00313Zm-1.8906 2.32812c.6718.55 1.1062 1.3875 1.1062 2.32812 0 .9406-.4344 1.7781-1.1062 2.3281-.3219.2625-.7938.2125-1.0563-.1093-.2625-.3219-.2125-.7938.1094-1.0563.3375-.275.5531-.6937.5531-1.1625 0-.46874-.2156-.88749-.5531-1.16562-.3219-.2625-.3688-.73437-.1094-1.05625.2594-.32187.7344-.36875 1.0563-.10937v.00312ZM9.40938 3.24221c.35937.1625.59062.51875.59062.9125V16.1547c0 .3938-.23125.75-.59062.9125-.35938.1625-.78125.0969-1.075-.1656l-4.21563-3.7469H2c-1.10312 0-2-.8969-2-2V9.15471c0-1.10313.89687-2 2-2h2.11875l4.21563-3.74688c.29375-.2625.71562-.325 1.075-.16562Z"/></svg>