<svg xmlns="http://www.w3.org/2000/svg" width="24" height="24" fill="none" class="social-media__icon" viewBox="0 0 48 48"><path fill="#fff" d="M37.12 26.34c-2.2 0-4.26-.94-6.14-2.46l.44-2.16.02-.08c.42-2.28 1.7-6.12 5.68-6.12 1.44 0 2.82.58 3.82 1.58 1.02 1.02 1.58 2.4 1.6 3.82-.02 1.44-.58 2.82-1.6 3.82-1.02 1.02-2.38 1.6-3.82 1.6zm0-16.28c-5.08 0-9.02 3.3-10.62 8.72-2.44-3.66-4.3-8.06-5.38-11.78h-5.46v14.22c0 1.36-.54 2.64-1.5 3.6s-2.24 1.5-3.6 1.5c-1.34 0-2.64-.54-3.6-1.5s-1.48-2.24-1.48-3.6V7H0v14.22c0 5.84 4.74 10.6 10.56 10.6s10.56-4.76 10.56-10.6v-2.38c1.06 2.22 2.38 4.46 3.96 6.44l-3.34 15.76h5.58l2.44-11.42c2.12 1.34 4.56 2.2 7.36 2.2 6 0 10.88-4.9 10.88-10.9s-4.88-10.86-10.88-10.86z"/></svg>