<svg width="24" height="10" viewBox="0 0 24 10" fill="none" xmlns="http://www.w3.org/2000/svg">
<g clip-path="url(#clip0_2541_12301)">
<path d="M22.035 1.02964C20.7988 0.0511809 18.9235 0.000247649 18.7294 0L18.7198 0C18.7163 0 18.7132 8.25497e-05 18.7121 0.000165099H17.5369L16.046 2.68295L19.2876 2.68171C20.5492 2.72084 21.5856 4.11395 21.2465 5.74943C20.9061 7.392 18.8622 7.42279 18.8622 7.42279H16.6245L18.4111 4.19089H15.2116L12 10H19.4838C20.1016 9.91415 22.482 9.5894 23.5679 7.18695C24.6539 4.78401 23.5254 2.20994 22.035 1.02964Z" fill="white"/>
<path d="M11 8.27274e-05L7.86041 0L4 7.14392L5.58883 10L11 8.27274e-05Z" fill="white"/>
<path d="M16 0L12.8604 0L9 7.14378L10.5888 10L16 0Z" fill="white"/>
<path d="M3.02367 5L6 0L0 0L3.02367 5Z" fill="white"/>
</g>
<defs>
<clipPath id="clip0_2541_12301">
<rect width="24" height="10" fill="white"/>
</clipPath>
</defs>
</svg>
