<svg xmlns="http://www.w3.org/2000/svg" width="24" height="24" fill="none" class="social-media__icon" viewBox="0 0 48 48"><path fill="#fff" d="M39.588 8.4021c-2.0272-2.0373-4.4416-3.6527-7.1028-4.7519-2.661-1.0991-5.5154-1.6601-8.3968-1.6501-12.0723 0-21.9115 9.79-21.9115 21.8019 0 3.85 1.0171 7.59 2.9186 10.89L2 46l11.608-3.036c3.2061 1.738 6.81 2.662 10.4804 2.662C36.1608 45.626 46 35.836 46 23.824c0-5.8299-2.2774-11.3079-6.412-15.4219ZM24.0884 41.93c-3.2724 0-6.4784-.88-9.2864-2.53l-.6633-.396-6.8985 1.804 1.8352-6.688-.4422-.682c-1.8181-2.8886-2.7834-6.2276-2.786-9.636 0-9.9879 8.1809-18.1279 18.2192-18.1279 4.8642 0 9.4412 1.892 12.8682 5.324 1.697 1.6807 3.0418 3.6799 3.9566 5.8815.9146 2.2017 1.381 4.5622 1.3722 6.9444.0442 9.988-8.1368 18.106-18.175 18.106Zm9.994-13.552c-.5528-.264-3.2502-1.584-3.7366-1.782-.5086-.176-.8624-.264-1.2382.264-.376.55-1.4152 1.782-1.7246 2.134-.3096.374-.6412.418-1.194.132-.5528-.264-2.3216-.858-4.4-2.706-1.6362-1.452-2.7197-3.234-3.0513-3.784-.3096-.55-.0442-.836.2432-1.122.2432-.242.5528-.638.8181-.946.2654-.308.3758-.55.5528-.9019.1768-.374.0884-.682-.0442-.946-.1328-.264-1.2383-2.948-1.6805-4.048-.4422-1.056-.9065-.924-1.2382-.946h-1.0613c-.3758 0-.9507.132-1.4593.682-.4864.55-1.9015 1.87-1.9015 4.554 0 2.6839 1.9679 5.2799 2.2332 5.6319.2653.374 3.8693 5.874 9.3528 8.228 1.3044.572 2.3216.902 3.1176 1.144 1.3044.418 2.4984.352 3.4492.22 1.0614-.154 3.2502-1.32 3.6924-2.596.4644-1.276.4644-2.354.3096-2.596s-.4864-.352-1.0392-.616Z"/></svg>